<?xml version="1.0" standalone="no"?>
 <!DOCTYPE svg PUBLIC "-//W3C//DTD SVG 1.1//EN" 
 "http://www.w3.org/Graphics/SVG/1.1/DTD/svg11.dtd"> 
<svg xmlns="http://www.w3.org/2000/svg" version="1.1" 
    width="29.7002cm" height="21.0007cm" viewBox="0 0 116930 82680 ">
<title>SVG Picture created as dev-AmpOne-drl_map.svg date 2017/02/14 11:50:09 </title>
  <desc>Picture generated by PCBNEW </desc>
<g style="fill:#000000; fill-opacity:1;stroke:#000000; stroke-opacity:1;
stroke-linecap:round; stroke-linejoin:round; "
 transform="translate(0 0) scale(1 1)">
</g>
<g style="fill:#000000; fill-opacity:0.0; 
stroke:#000000; stroke-width:-0.000393701; stroke-opacity:1; 
stroke-linecap:round; stroke-linejoin:round;">
</g>
<g style="fill:#000000; fill-opacity:0.0; 
stroke:#000000; stroke-width:39.3701; stroke-opacity:1; 
stroke-linecap:round; stroke-linejoin:round;">
<path d="M42125 14173
L81496 14173
" />
<path d="M48031 53543
L42125 53543
" />
<path d="M81496 53543
L48031 53543
" />
<path d="M81496 14173
L81496 53543
" />
<path d="M42125 53543
L42125 14173
" />
</g>
<g style="fill:#000000; fill-opacity:0.0; 
stroke:#000000; stroke-width:78.7402; stroke-opacity:1; 
stroke-linecap:round; stroke-linejoin:round;">
<path d="M42500 14547
L42696 14744
" />
<path d="M42696 14547
L42500 14744
" />
<path d="M42519 27559
L42716 27755
" />
<path d="M42716 27559
L42519 27755
" />
<path d="M42519 30807
L42716 31003
" />
<path d="M42716 30807
L42519 31003
" />
<path d="M42519 31791
L42716 31988
" />
<path d="M42716 31791
L42519 31988
" />
<path d="M42519 32775
L42716 32972
" />
<path d="M42716 32775
L42519 32972
" />
<path d="M42519 33759
L42716 33956
" />
<path d="M42716 33759
L42519 33956
" />
<path d="M42519 34744
L42716 34940
" />
<path d="M42716 34744
L42519 34940
" />
<path d="M42519 35826
L42716 36023
" />
<path d="M42716 35826
L42519 36023
" />
<path d="M42519 36811
L42716 37007
" />
<path d="M42716 36811
L42519 37007
" />
<path d="M42519 39960
L42716 40157
" />
<path d="M42716 39960
L42519 40157
" />
<path d="M42539 52933
L42736 53129
" />
<path d="M42736 52933
L42539 53129
" />
<path d="M42716 47933
L42913 48129
" />
<path d="M42913 47933
L42716 48129
" />
<path d="M42716 50000
L42913 50196
" />
<path d="M42913 50000
L42716 50196
" />
<path d="M43011 17224
L43208 17421
" />
<path d="M43208 17224
L43011 17421
" />
<path d="M43208 25295
L43405 25492
" />
<path d="M43405 25295
L43208 25492
" />
<path d="M43208 42224
L43405 42421
" />
<path d="M43405 42224
L43208 42421
" />
<path d="M44468 22342
L44665 22539
" />
<path d="M44665 22342
L44468 22539
" />
<path d="M44665 48169
L44862 48366
" />
<path d="M44862 48169
L44665 48366
" />
<path d="M44743 45389
L44940 45586
" />
<path d="M44940 45389
L44743 45586
" />
<path d="M45275 52952
L45472 53149
" />
<path d="M45472 52952
L45275 53149
" />
<path d="M45374 15059
L45570 15255
" />
<path d="M45570 15059
L45374 15255
" />
<path d="M45374 16929
L45570 17125
" />
<path d="M45570 16929
L45374 17125
" />
<path d="M45866 33759
L46062 33956
" />
<path d="M46062 33759
L45866 33956
" />
<path d="M45866 49901
L46062 50098
" />
<path d="M46062 49901
L45866 50098
" />
<path d="M45900 17629
L46097 17825
" />
<path d="M46097 17629
L45900 17825
" />
<path d="M46318 48641
L46515 48838
" />
<path d="M46515 48641
L46318 48838
" />
<path d="M46358 46358
L46555 46555
" />
<path d="M46555 46358
L46358 46555
" />
<path d="M46555 33759
L46751 33956
" />
<path d="M46751 33759
L46555 33956
" />
<path d="M46791 18562
L46988 18759
" />
<path d="M46988 18562
L46791 18759
" />
<path d="M47145 40649
L47342 40846
" />
<path d="M47342 40649
L47145 40846
" />
<path d="M47244 14468
L47440 14665
" />
<path d="M47440 14468
L47244 14665
" />
<path d="M47736 44074
L47933 44271
" />
<path d="M47933 44074
L47736 44271
" />
<path d="M47854 38799
L48051 38996
" />
<path d="M48051 38799
L47854 38996
" />
<path d="M48031 17322
L48228 17519
" />
<path d="M48228 17322
L48031 17519
" />
<path d="M48129 45177
L48326 45374
" />
<path d="M48326 45177
L48129 45374
" />
<path d="M48129 47736
L48326 47933
" />
<path d="M48326 47736
L48129 47933
" />
<path d="M48205 19706
L48402 19903
" />
<path d="M48402 19706
L48205 19903
" />
<path d="M48407 46580
L48604 46777
" />
<path d="M48604 46580
L48407 46777
" />
<path d="M48409 46043
L48606 46240
" />
<path d="M48606 46043
L48409 46240
" />
<path d="M48425 33759
L48622 33956
" />
<path d="M48622 33759
L48425 33956
" />
<path d="M48484 18759
L48681 18956
" />
<path d="M48681 18759
L48484 18956
" />
<path d="M48538 48649
L48735 48846
" />
<path d="M48735 48649
L48538 48846
" />
<path d="M48622 20570
L48818 20767
" />
<path d="M48818 20570
L48622 20767
" />
<path d="M48622 21948
L48818 22145
" />
<path d="M48818 21948
L48622 22145
" />
<path d="M48702 22541
L48899 22738
" />
<path d="M48899 22541
L48702 22738
" />
<path d="M48720 29330
L48917 29527
" />
<path d="M48917 29330
L48720 29527
" />
<path d="M48720 30492
L48917 30688
" />
<path d="M48917 30492
L48720 30688
" />
<path d="M48720 31948
L48917 32145
" />
<path d="M48917 31948
L48720 32145
" />
<path d="M48720 35649
L48917 35846
" />
<path d="M48917 35649
L48720 35846
" />
<path d="M48720 37027
L48917 37224
" />
<path d="M48917 37027
L48720 37224
" />
<path d="M48720 38188
L48917 38385
" />
<path d="M48917 38188
L48720 38385
" />
<path d="M48720 43996
L48917 44192
" />
<path d="M48917 43996
L48720 44192
" />
<path d="M48737 23633
L48934 23830
" />
<path d="M48934 23633
L48737 23830
" />
<path d="M48877 19822
L49074 20019
" />
<path d="M49074 19822
L48877 20019
" />
<path d="M49015 14468
L49212 14665
" />
<path d="M49212 14468
L49015 14665
" />
<path d="M49114 47440
L49311 47637
" />
<path d="M49311 47440
L49114 47637
" />
<path d="M49191 44974
L49388 45170
" />
<path d="M49388 44974
L49191 45170
" />
<path d="M49212 52952
L49409 53149
" />
<path d="M49409 52952
L49212 53149
" />
<path d="M49311 33070
L49507 33267
" />
<path d="M49507 33070
L49311 33267
" />
<path d="M49311 33759
L49507 33956
" />
<path d="M49507 33759
L49311 33956
" />
<path d="M49311 34547
L49507 34744
" />
<path d="M49507 34547
L49311 34744
" />
<path d="M49546 20566
L49742 20763
" />
<path d="M49742 20566
L49546 20763
" />
<path d="M49704 24311
L49901 24507
" />
<path d="M49901 24311
L49704 24507
" />
<path d="M49704 45019
L49901 45216
" />
<path d="M49901 45019
L49704 45216
" />
<path d="M49744 25216
L49940 25413
" />
<path d="M49940 25216
L49744 25413
" />
<path d="M49822 21909
L50019 22106
" />
<path d="M50019 21909
L49822 22106
" />
<path d="M49847 42689
L50043 42886
" />
<path d="M50043 42689
L49847 42886
" />
<path d="M50098 23523
L50295 23720
" />
<path d="M50295 23523
L50098 23720
" />
<path d="M50098 47440
L50295 47637
" />
<path d="M50295 47440
L50098 47637
" />
<path d="M50196 26377
L50393 26574
" />
<path d="M50393 26377
L50196 26574
" />
<path d="M50196 43307
L50393 43503
" />
<path d="M50393 43307
L50196 43503
" />
<path d="M50295 44094
L50492 44291
" />
<path d="M50492 44094
L50295 44291
" />
<path d="M50295 44586
L50492 44783
" />
<path d="M50492 44586
L50295 44783
" />
<path d="M50334 18917
L50531 19114
" />
<path d="M50531 18917
L50334 19114
" />
<path d="M50492 45669
L50688 45866
" />
<path d="M50688 45669
L50492 45866
" />
<path d="M50546 50566
L50742 50762
" />
<path d="M50742 50566
L50546 50762
" />
<path d="M50589 43309
L50786 43506
" />
<path d="M50786 43309
L50589 43506
" />
<path d="M50590 23326
L50787 23523
" />
<path d="M50787 23326
L50590 23523
" />
<path d="M50590 23818
L50787 24015
" />
<path d="M50787 23818
L50590 24015
" />
<path d="M50590 25492
L50787 25688
" />
<path d="M50787 25492
L50590 25688
" />
<path d="M50590 40748
L50787 40944
" />
<path d="M50787 40748
L50590 40944
" />
<path d="M50590 43700
L50787 43897
" />
<path d="M50787 43700
L50590 43897
" />
<path d="M50594 20995
L50791 21192
" />
<path d="M50791 20995
L50594 21192
" />
<path d="M50697 46257
L50894 46454
" />
<path d="M50894 46257
L50697 46454
" />
<path d="M50705 25956
L50902 26153
" />
<path d="M50902 25956
L50705 26153
" />
<path d="M50777 19679
L50974 19876
" />
<path d="M50974 19679
L50777 19876
" />
<path d="M51053 24186
L51250 24383
" />
<path d="M51250 24186
L51053 24383
" />
<path d="M51082 15059
L51279 15255
" />
<path d="M51279 15059
L51082 15255
" />
<path d="M51377 39960
L51574 40157
" />
<path d="M51574 39960
L51377 40157
" />
<path d="M51673 16043
L51870 16240
" />
<path d="M51870 16043
L51673 16240
" />
<path d="M51870 20177
L52066 20374
" />
<path d="M52066 20177
L51870 20374
" />
<path d="M51870 37500
L52066 37696
" />
<path d="M52066 37500
L51870 37696
" />
<path d="M51870 38877
L52066 39074
" />
<path d="M52066 38877
L51870 39074
" />
<path d="M52263 25984
L52460 26181
" />
<path d="M52460 25984
L52263 26181
" />
<path d="M52263 46259
L52460 46456
" />
<path d="M52460 46259
L52263 46456
" />
<path d="M52362 52952
L52559 53149
" />
<path d="M52559 52952
L52362 53149
" />
<path d="M52500 26555
L52696 26751
" />
<path d="M52696 26555
L52500 26751
" />
<path d="M52606 24354
L52802 24551
" />
<path d="M52802 24354
L52606 24551
" />
<path d="M52657 23818
L52854 24015
" />
<path d="M52854 23818
L52657 24015
" />
<path d="M52657 47440
L52854 47637
" />
<path d="M52854 47440
L52657 47637
" />
<path d="M52732 30507
L52929 30703
" />
<path d="M52929 30507
L52732 30703
" />
<path d="M52750 22538
L52947 22735
" />
<path d="M52947 22538
L52750 22735
" />
<path d="M52755 18799
L52952 18996
" />
<path d="M52952 18799
L52755 18996
" />
<path d="M52755 21259
L52952 21456
" />
<path d="M52952 21259
L52755 21456
" />
<path d="M52775 27893
L52972 28090
" />
<path d="M52972 27893
L52775 28090
" />
<path d="M52775 29429
L52972 29625
" />
<path d="M52972 29429
L52775 29625
" />
<path d="M52854 43503
L53051 43700
" />
<path d="M53051 43503
L52854 43700
" />
<path d="M52854 44940
L53051 45137
" />
<path d="M53051 44940
L52854 45137
" />
<path d="M53279 31349
L53476 31546
" />
<path d="M53476 31349
L53279 31546
" />
<path d="M53838 35629
L54035 35826
" />
<path d="M54035 35629
L53838 35826
" />
<path d="M54035 49114
L54232 49311
" />
<path d="M54232 49114
L54035 49311
" />
<path d="M54330 37204
L54527 37401
" />
<path d="M54527 37204
L54330 37401
" />
<path d="M54429 30413
L54625 30610
" />
<path d="M54625 30413
L54429 30610
" />
<path d="M55019 28346
L55216 28543
" />
<path d="M55216 28346
L55019 28543
" />
<path d="M55019 31988
L55216 32185
" />
<path d="M55216 31988
L55019 32185
" />
<path d="M55019 35629
L55216 35826
" />
<path d="M55216 35629
L55019 35826
" />
<path d="M55118 39173
L55314 39370
" />
<path d="M55314 39173
L55118 39370
" />
<path d="M55216 18503
L55413 18700
" />
<path d="M55413 18503
L55216 18700
" />
<path d="M55216 22539
L55413 22736
" />
<path d="M55413 22539
L55216 22736
" />
<path d="M55216 22933
L55413 23129
" />
<path d="M55413 22933
L55216 23129
" />
<path d="M55216 23326
L55413 23523
" />
<path d="M55413 23326
L55216 23523
" />
<path d="M55216 23720
L55413 23917
" />
<path d="M55413 23720
L55216 23917
" />
<path d="M55216 24114
L55413 24311
" />
<path d="M55413 24114
L55216 24311
" />
<path d="M55216 24507
L55413 24704
" />
<path d="M55413 24507
L55216 24704
" />
<path d="M55216 24901
L55413 25098
" />
<path d="M55413 24901
L55216 25098
" />
<path d="M55216 25295
L55413 25492
" />
<path d="M55413 25295
L55216 25492
" />
<path d="M55216 42224
L55413 42421
" />
<path d="M55413 42224
L55216 42421
" />
<path d="M55216 42618
L55413 42814
" />
<path d="M55413 42618
L55216 42814
" />
<path d="M55216 43011
L55413 43208
" />
<path d="M55413 43011
L55216 43208
" />
<path d="M55216 43405
L55413 43602
" />
<path d="M55413 43405
L55216 43602
" />
<path d="M55216 43799
L55413 43996
" />
<path d="M55413 43799
L55216 43996
" />
<path d="M55216 44192
L55413 44389
" />
<path d="M55413 44192
L55216 44389
" />
<path d="M55216 44586
L55413 44783
" />
<path d="M55413 44586
L55216 44783
" />
<path d="M55216 44980
L55413 45177
" />
<path d="M55413 44980
L55216 45177
" />
<path d="M55511 35433
L55708 35629
" />
<path d="M55708 35433
L55511 35629
" />
<path d="M55610 49212
L55807 49409
" />
<path d="M55807 49212
L55610 49409
" />
<path d="M55807 21751
L56003 21948
" />
<path d="M56003 21751
L55807 21948
" />
<path d="M55807 26082
L56003 26279
" />
<path d="M56003 26082
L55807 26279
" />
<path d="M55807 41633
L56003 41830
" />
<path d="M56003 41633
L55807 41830
" />
<path d="M55807 45866
L56003 46062
" />
<path d="M56003 45866
L55807 46062
" />
<path d="M55905 32381
L56102 32578
" />
<path d="M56102 32381
L55905 32578
" />
<path d="M56102 18405
L56299 18602
" />
<path d="M56299 18405
L56102 18602
" />
<path d="M56200 14960
L56397 15157
" />
<path d="M56397 14960
L56200 15157
" />
<path d="M56397 22539
L56594 22736
" />
<path d="M56594 22539
L56397 22736
" />
<path d="M56397 22933
L56594 23129
" />
<path d="M56594 22933
L56397 23129
" />
<path d="M56397 23326
L56594 23523
" />
<path d="M56594 23326
L56397 23523
" />
<path d="M56397 23720
L56594 23917
" />
<path d="M56594 23720
L56397 23917
" />
<path d="M56397 24114
L56594 24311
" />
<path d="M56594 24114
L56397 24311
" />
<path d="M56397 24507
L56594 24704
" />
<path d="M56594 24507
L56397 24704
" />
<path d="M56397 24901
L56594 25098
" />
<path d="M56594 24901
L56397 25098
" />
<path d="M56397 25295
L56594 25492
" />
<path d="M56594 25295
L56397 25492
" />
<path d="M56397 29921
L56594 30118
" />
<path d="M56594 29921
L56397 30118
" />
<path d="M56397 33464
L56594 33661
" />
<path d="M56594 33464
L56397 33661
" />
<path d="M56397 33956
L56594 34153
" />
<path d="M56594 33956
L56397 34153
" />
<path d="M56397 37696
L56594 37893
" />
<path d="M56594 37696
L56397 37893
" />
<path d="M56397 42224
L56594 42421
" />
<path d="M56594 42224
L56397 42421
" />
<path d="M56397 42618
L56594 42814
" />
<path d="M56594 42618
L56397 42814
" />
<path d="M56397 43011
L56594 43208
" />
<path d="M56594 43011
L56397 43208
" />
<path d="M56397 43405
L56594 43602
" />
<path d="M56594 43405
L56397 43602
" />
<path d="M56397 43799
L56594 43996
" />
<path d="M56594 43799
L56397 43996
" />
<path d="M56397 44192
L56594 44389
" />
<path d="M56594 44192
L56397 44389
" />
<path d="M56397 44586
L56594 44783
" />
<path d="M56594 44586
L56397 44783
" />
<path d="M56397 44980
L56594 45177
" />
<path d="M56594 44980
L56397 45177
" />
<path d="M56496 52952
L56692 53149
" />
<path d="M56692 52952
L56496 53149
" />
<path d="M56791 30314
L56988 30511
" />
<path d="M56988 30314
L56791 30511
" />
<path d="M56889 22047
L57086 22244
" />
<path d="M57086 22047
L56889 22244
" />
<path d="M56889 25787
L57086 25984
" />
<path d="M57086 25787
L56889 25984
" />
<path d="M56889 33464
L57086 33661
" />
<path d="M57086 33464
L56889 33661
" />
<path d="M56889 33956
L57086 34153
" />
<path d="M57086 33956
L56889 34153
" />
<path d="M56889 37204
L57086 37401
" />
<path d="M57086 37204
L56889 37401
" />
<path d="M56889 41732
L57086 41929
" />
<path d="M57086 41732
L56889 41929
" />
<path d="M56889 45472
L57086 45669
" />
<path d="M57086 45472
L56889 45669
" />
<path d="M57283 17716
L57480 17913
" />
<path d="M57480 17716
L57283 17913
" />
<path d="M57480 50295
L57677 50492
" />
<path d="M57677 50295
L57480 50492
" />
<path d="M57578 24311
L57775 24507
" />
<path d="M57775 24311
L57578 24507
" />
<path d="M57578 43208
L57775 43405
" />
<path d="M57775 43208
L57578 43405
" />
<path d="M57578 43996
L57775 44192
" />
<path d="M57775 43996
L57578 44192
" />
<path d="M57677 23425
L57874 23622
" />
<path d="M57874 23425
L57677 23622
" />
<path d="M58070 31200
L58267 31397
" />
<path d="M58267 31200
L58070 31397
" />
<path d="M58169 36417
L58366 36614
" />
<path d="M58366 36417
L58169 36614
" />
<path d="M58267 52952
L58464 53149
" />
<path d="M58464 52952
L58267 53149
" />
<path d="M58366 14566
L58562 14763
" />
<path d="M58562 14566
L58366 14763
" />
<path d="M58366 17913
L58562 18110
" />
<path d="M58562 17913
L58366 18110
" />
<path d="M58661 28740
L58858 28937
" />
<path d="M58858 28740
L58661 28937
" />
<path d="M58661 31200
L58858 31397
" />
<path d="M58858 31200
L58661 31397
" />
<path d="M58661 31889
L58858 32086
" />
<path d="M58858 31889
L58661 32086
" />
<path d="M58759 35826
L58956 36023
" />
<path d="M58956 35826
L58759 36023
" />
<path d="M58759 36417
L58956 36614
" />
<path d="M58956 36417
L58759 36614
" />
<path d="M58759 38976
L58956 39173
" />
<path d="M58956 38976
L58759 39173
" />
<path d="M58956 49507
L59153 49704
" />
<path d="M59153 49507
L58956 49704
" />
<path d="M59822 23562
L60019 23759
" />
<path d="M60019 23562
L59822 23759
" />
<path d="M59822 44035
L60019 44232
" />
<path d="M60019 44035
L59822 44232
" />
<path d="M60629 17913
L60826 18110
" />
<path d="M60826 17913
L60629 18110
" />
<path d="M60925 28740
L61122 28937
" />
<path d="M61122 28740
L60925 28937
" />
<path d="M61122 49311
L61318 49507
" />
<path d="M61318 49311
L61122 49507
" />
<path d="M61318 38976
L61515 39173
" />
<path d="M61515 38976
L61318 39173
" />
<path d="M62066 35846
L62263 36043
" />
<path d="M62263 35846
L62066 36043
" />
<path d="M62185 31594
L62381 31791
" />
<path d="M62381 31594
L62185 31791
" />
<path d="M62303 52952
L62500 53149
" />
<path d="M62500 52952
L62303 53149
" />
<path d="M62500 14566
L62696 14763
" />
<path d="M62696 14566
L62500 14763
" />
<path d="M63385 35826
L63582 36023
" />
<path d="M63582 35826
L63385 36023
" />
<path d="M63405 44035
L63602 44232
" />
<path d="M63602 44035
L63405 44232
" />
<path d="M63444 23562
L63641 23759
" />
<path d="M63641 23562
L63444 23759
" />
<path d="M63484 31594
L63681 31791
" />
<path d="M63681 31594
L63484 31791
" />
<path d="M64744 31594
L64940 31791
" />
<path d="M64940 31594
L64744 31791
" />
<path d="M64744 35826
L64940 36023
" />
<path d="M64940 35826
L64744 36023
" />
<path d="M64763 15846
L64960 16043
" />
<path d="M64960 15846
L64763 16043
" />
<path d="M64763 51574
L64960 51771
" />
<path d="M64960 51574
L64763 51771
" />
<path d="M66043 31594
L66240 31791
" />
<path d="M66240 31594
L66043 31791
" />
<path d="M66043 35826
L66240 36023
" />
<path d="M66240 35826
L66043 36023
" />
<path d="M66594 23562
L66791 23759
" />
<path d="M66791 23562
L66594 23759
" />
<path d="M66633 44035
L66830 44232
" />
<path d="M66830 44035
L66633 44232
" />
<path d="M67027 52952
L67224 53149
" />
<path d="M67224 52952
L67027 53149
" />
<path d="M67125 14566
L67322 14763
" />
<path d="M67322 14566
L67125 14763
" />
<path d="M67342 31555
L67539 31751
" />
<path d="M67539 31555
L67342 31751
" />
<path d="M67460 35807
L67657 36003
" />
<path d="M67657 35807
L67460 36003
" />
<path d="M69271 49232
L69468 49429
" />
<path d="M69468 49232
L69271 49429
" />
<path d="M69389 18366
L69586 18562
" />
<path d="M69586 18366
L69389 18562
" />
<path d="M69980 43996
L70177 44192
" />
<path d="M70177 43996
L69980 44192
" />
<path d="M70019 21751
L70216 21948
" />
<path d="M70216 21751
L70019 21948
" />
<path d="M70019 23523
L70216 23720
" />
<path d="M70216 23523
L70019 23720
" />
<path d="M70019 45570
L70216 45767
" />
<path d="M70216 45570
L70019 45767
" />
<path d="M70255 35531
L70452 35728
" />
<path d="M70452 35531
L70255 35728
" />
<path d="M70295 31870
L70492 32066
" />
<path d="M70492 31870
L70295 32066
" />
<path d="M70767 20866
L70964 21062
" />
<path d="M70964 20866
L70767 21062
" />
<path d="M70767 24409
L70964 24606
" />
<path d="M70964 24409
L70767 24606
" />
<path d="M70767 43110
L70964 43307
" />
<path d="M70964 43110
L70767 43307
" />
<path d="M70767 46555
L70964 46751
" />
<path d="M70964 46555
L70767 46751
" />
<path d="M70964 52952
L71161 53149
" />
<path d="M71161 52952
L70964 53149
" />
<path d="M71259 14566
L71456 14763
" />
<path d="M71456 14566
L71259 14763
" />
<path d="M72244 36318
L72440 36515
" />
<path d="M72440 36318
L72244 36515
" />
<path d="M72736 30610
L72933 30807
" />
<path d="M72933 30610
L72736 30807
" />
<path d="M72814 16397
L73011 16594
" />
<path d="M73011 16397
L72814 16594
" />
<path d="M72834 37106
L73031 37303
" />
<path d="M73031 37106
L72834 37303
" />
<path d="M73228 52952
L73425 53149
" />
<path d="M73425 52952
L73228 53149
" />
<path d="M73248 51122
L73444 51318
" />
<path d="M73444 51122
L73248 51318
" />
<path d="M73326 14566
L73523 14763
" />
<path d="M73523 14566
L73326 14763
" />
<path d="M75787 36318
L75984 36515
" />
<path d="M75984 36318
L75787 36515
" />
<path d="M76279 31003
L76476 31200
" />
<path d="M76476 31003
L76279 31200
" />
<path d="M76279 36909
L76476 37106
" />
<path d="M76476 36909
L76279 37106
" />
<path d="M77263 37696
L77460 37893
" />
<path d="M77460 37696
L77263 37893
" />
<path d="M77460 29822
L77657 30019
" />
<path d="M77657 29822
L77460 30019
" />
<path d="M77559 15059
L77755 15255
" />
<path d="M77755 15059
L77559 15255
" />
<path d="M77755 52460
L77952 52657
" />
<path d="M77952 52460
L77755 52657
" />
<path d="M80045 35231
L80242 35428
" />
<path d="M80242 35231
L80045 35428
" />
<path d="M80045 38460
L80242 38656
" />
<path d="M80242 38460
L80045 38656
" />
<path d="M80076 41535
L80273 41732
" />
<path d="M80273 41535
L80076 41732
" />
<path d="M80110 25989
L80307 26185
" />
<path d="M80307 25989
L80110 26185
" />
<path d="M80110 28951
L80307 29147
" />
<path d="M80307 28951
L80110 29147
" />
<path d="M80117 22535
L80314 22732
" />
<path d="M80314 22535
L80117 22732
" />
<path d="M80124 48351
L80321 48547
" />
<path d="M80321 48351
L80124 48547
" />
<path d="M80140 45228
L80337 45425
" />
<path d="M80337 45228
L80140 45425
" />
<path d="M80166 19303
L80362 19500
" />
<path d="M80362 19303
L80166 19500
" />
<path d="M80610 43405
L80807 43602
" />
<path d="M80807 43405
L80610 43602
" />
<path d="M80708 24114
L80905 24311
" />
<path d="M80905 24114
L80708 24311
" />
<path d="M80708 50295
L80905 50492
" />
<path d="M80905 50295
L80708 50492
" />
<path d="M80925 14547
L81122 14744
" />
<path d="M81122 14547
L80925 14744
" />
<path d="M80925 52933
L81122 53129
" />
<path d="M81122 52933
L80925 53129
" />
<circle cx="43503.9" cy="20767.7" r="157.48" /> 
<circle cx="43503.9" cy="21752" r="157.48" /> 
<circle cx="43503.9" cy="45964.6" r="157.48" /> 
<circle cx="43503.9" cy="46948.8" r="157.48" /> 
<circle cx="44881.9" cy="23622" r="157.48" /> 
<circle cx="44881.9" cy="44094.5" r="157.48" /> 
<circle cx="45177.2" cy="25787.4" r="157.48" /> 
<circle cx="45177.2" cy="41929.1" r="157.48" /> 
<circle cx="46161.4" cy="25787.4" r="157.48" /> 
<circle cx="46161.4" cy="41929.1" r="157.48" /> 
<circle cx="46259.8" cy="20275.6" r="157.48" /> 
<circle cx="46259.8" cy="22244.1" r="157.48" /> 
<circle cx="46456.7" cy="45472.4" r="157.48" /> 
<circle cx="46456.7" cy="47440.9" r="157.48" /> 
<circle cx="46653.5" cy="28149.6" r="157.48" /> 
<circle cx="46653.5" cy="39566.9" r="157.48" /> 
<circle cx="46850.4" cy="23622" r="157.48" /> 
<circle cx="46850.4" cy="44094.5" r="157.48" /> 
<circle cx="47933.1" cy="25984.3" r="157.48" /> 
<circle cx="47933.1" cy="41732.3" r="157.48" /> 
<circle cx="48622" cy="28149.6" r="157.48" /> 
<circle cx="48622" cy="39566.9" r="157.48" /> 
<circle cx="48917.3" cy="25984.3" r="157.48" /> 
<circle cx="48917.3" cy="41732.3" r="157.48" /> 
<circle cx="50000" cy="27755.9" r="157.48" /> 
<circle cx="50000" cy="29724.4" r="157.48" /> 
<circle cx="50000" cy="31200.8" r="157.48" /> 
<circle cx="50000" cy="32185" r="157.48" /> 
<circle cx="50000" cy="35531.5" r="157.48" /> 
<circle cx="50000" cy="36515.7" r="157.48" /> 
<circle cx="50000" cy="37992.1" r="157.48" /> 
<circle cx="50000" cy="39960.6" r="157.48" /> 
<circle cx="60629.9" cy="22440.9" r="157.48" /> 
<circle cx="60629.9" cy="24803.1" r="157.48" /> 
<circle cx="60629.9" cy="42913.4" r="157.48" /> 
<circle cx="60629.9" cy="45275.6" r="157.48" /> 
<circle cx="62598.4" cy="22440.9" r="157.48" /> 
<circle cx="62598.4" cy="24803.1" r="157.48" /> 
<circle cx="62598.4" cy="42913.4" r="157.48" /> 
<circle cx="62598.4" cy="45275.6" r="157.48" /> 
<circle cx="63732.2" cy="20484.1" r="157.48" /> 
<circle cx="63779.5" cy="26771.7" r="157.48" /> 
<circle cx="63779.5" cy="40944.9" r="157.48" /> 
<circle cx="63779.5" cy="47244.1" r="157.48" /> 
<circle cx="64173.2" cy="22637.8" r="157.48" /> 
<circle cx="64173.2" cy="24606.3" r="157.48" /> 
<circle cx="64173.2" cy="43110.2" r="157.48" /> 
<circle cx="64173.2" cy="45078.7" r="157.48" /> 
<circle cx="65700.7" cy="20484.1" r="157.48" /> 
<circle cx="65748" cy="26771.7" r="157.48" /> 
<circle cx="65748" cy="40944.9" r="157.48" /> 
<circle cx="65748" cy="47244.1" r="157.48" /> 
<circle cx="66141.7" cy="22637.8" r="157.48" /> 
<circle cx="66141.7" cy="24606.3" r="157.48" /> 
<circle cx="66141.7" cy="43110.2" r="157.48" /> 
<circle cx="66141.7" cy="45078.7" r="157.48" /> 
<circle cx="67322.8" cy="22637.8" r="157.48" /> 
<circle cx="67322.8" cy="24606.3" r="157.48" /> 
<circle cx="67322.8" cy="43110.2" r="157.48" /> 
<circle cx="67322.8" cy="45078.7" r="157.48" /> 
<circle cx="69291.3" cy="22637.8" r="157.48" /> 
<circle cx="69291.3" cy="24606.3" r="157.48" /> 
<circle cx="69291.3" cy="43110.2" r="157.48" /> 
<circle cx="69291.3" cy="45078.7" r="157.48" /> 
<circle cx="74409.4" cy="16535.4" r="157.48" /> 
<circle cx="74409.4" cy="18503.9" r="157.48" /> 
<circle cx="74409.4" cy="19881.9" r="157.48" /> 
<circle cx="74409.4" cy="21850.4" r="157.48" /> 
<circle cx="74409.4" cy="23228.3" r="157.48" /> 
<circle cx="74409.4" cy="25196.9" r="157.48" /> 
<circle cx="74409.4" cy="26574.8" r="157.48" /> 
<circle cx="74409.4" cy="28543.3" r="157.48" /> 
<circle cx="74409.4" cy="39173.2" r="157.48" /> 
<circle cx="74409.4" cy="41141.7" r="157.48" /> 
<circle cx="74409.4" cy="42519.7" r="157.48" /> 
<circle cx="74409.4" cy="44488.2" r="157.48" /> 
<circle cx="74409.4" cy="45866.1" r="157.48" /> 
<circle cx="74409.4" cy="47834.6" r="157.48" /> 
<circle cx="74409.4" cy="49212.6" r="157.48" /> 
<circle cx="74409.4" cy="51181.1" r="157.48" /> 
<circle cx="76181.1" cy="16535.4" r="157.48" /> 
<circle cx="76181.1" cy="18503.9" r="157.48" /> 
<circle cx="76181.1" cy="19881.9" r="157.48" /> 
<circle cx="76181.1" cy="21850.4" r="157.48" /> 
<circle cx="76181.1" cy="23228.3" r="157.48" /> 
<circle cx="76181.1" cy="25196.9" r="157.48" /> 
<circle cx="76181.1" cy="26574.8" r="157.48" /> 
<circle cx="76181.1" cy="28543.3" r="157.48" /> 
<circle cx="76181.1" cy="39173.2" r="157.48" /> 
<circle cx="76181.1" cy="41141.7" r="157.48" /> 
<circle cx="76181.1" cy="42519.7" r="157.48" /> 
<circle cx="76181.1" cy="44488.2" r="157.48" /> 
<circle cx="76181.1" cy="45866.1" r="157.48" /> 
<circle cx="76181.1" cy="47834.6" r="157.48" /> 
<circle cx="76181.1" cy="49212.6" r="157.48" /> 
<circle cx="76181.1" cy="51181.1" r="157.48" /> 
<path d="M42913 17913
L42913 18307
" />
<path d="M42716 18110
L43110 18110
" />
<path d="M42913 18913
L42913 19307
" />
<path d="M42716 19110
L43110 19110
" />
<path d="M43496 29161
L43496 29555
" />
<path d="M43299 29358
L43692 29358
" />
<path d="M43496 30161
L43496 30555
" />
<path d="M43299 30358
L43692 30358
" />
<path d="M43496 31161
L43496 31555
" />
<path d="M43299 31358
L43692 31358
" />
<path d="M43496 32161
L43496 32555
" />
<path d="M43299 32358
L43692 32358
" />
<path d="M43496 33161
L43496 33555
" />
<path d="M43299 33358
L43692 33358
" />
<path d="M43496 34161
L43496 34555
" />
<path d="M43299 34358
L43692 34358
" />
<path d="M43496 35161
L43496 35555
" />
<path d="M43299 35358
L43692 35358
" />
<path d="M43496 36161
L43496 36555
" />
<path d="M43299 36358
L43692 36358
" />
<path d="M43496 37161
L43496 37555
" />
<path d="M43299 37358
L43692 37358
" />
<path d="M43496 38161
L43496 38555
" />
<path d="M43299 38358
L43692 38358
" />
<path d="M44291 17913
L44291 18307
" />
<path d="M44094 18110
L44488 18110
" />
<path d="M44291 18913
L44291 19307
" />
<path d="M44094 19110
L44488 19110
" />
<path d="M44496 29161
L44496 29555
" />
<path d="M44299 29358
L44692 29358
" />
<path d="M44496 30161
L44496 30555
" />
<path d="M44299 30358
L44692 30358
" />
<path d="M44496 31161
L44496 31555
" />
<path d="M44299 31358
L44692 31358
" />
<path d="M44496 32161
L44496 32555
" />
<path d="M44299 32358
L44692 32358
" />
<path d="M44496 33161
L44496 33555
" />
<path d="M44299 33358
L44692 33358
" />
<path d="M44496 34161
L44496 34555
" />
<path d="M44299 34358
L44692 34358
" />
<path d="M44496 35161
L44496 35555
" />
<path d="M44299 35358
L44692 35358
" />
<path d="M44496 36161
L44496 36555
" />
<path d="M44299 36358
L44692 36358
" />
<path d="M44496 37161
L44496 37555
" />
<path d="M44299 37358
L44692 37358
" />
<path d="M44496 38161
L44496 38555
" />
<path d="M44299 38358
L44692 38358
" />
<path d="M50393 33661
L50393 34055
" />
<path d="M50196 33858
L50590 33858
" />
<path d="M51125 48228
L51125 48622
" />
<path d="M50929 48425
L51322 48425
" />
<path d="M51125 49330
L51125 49724
" />
<path d="M50929 49527
L51322 49527
" />
<path d="M51393 33661
L51393 34055
" />
<path d="M51196 33858
L51590 33858
" />
<path d="M51811 27464
L51811 27858
" />
<path d="M51614 27661
L52007 27661
" />
<path d="M51811 28464
L51811 28858
" />
<path d="M51614 28661
L52007 28661
" />
<path d="M51811 29511
L51811 29905
" />
<path d="M51614 29708
L52007 29708
" />
<path d="M51811 30511
L51811 30905
" />
<path d="M51614 30708
L52007 30708
" />
<path d="M52125 48228
L52125 48622
" />
<path d="M51929 48425
L52322 48425
" />
<path d="M52125 49330
L52125 49724
" />
<path d="M51929 49527
L52322 49527
" />
<path d="M53937 20669
L53937 21062
" />
<path d="M53740 20866
L54133 20866
" />
<path d="M53937 26968
L53937 27362
" />
<path d="M53740 27165
L54133 27165
" />
<path d="M53937 40748
L53937 41141
" />
<path d="M53740 40944
L54133 40944
" />
<path d="M53937 47047
L53937 47440
" />
<path d="M53740 47244
L54133 47244
" />
<path d="M55905 20669
L55905 21062
" />
<path d="M55708 20866
L56102 20866
" />
<path d="M55905 26968
L55905 27362
" />
<path d="M55708 27165
L56102 27165
" />
<path d="M55905 40748
L55905 41141
" />
<path d="M55708 40944
L56102 40944
" />
<path d="M55905 47047
L55905 47440
" />
<path d="M55708 47244
L56102 47244
" />
<path d="M74409 32086
L74409 32480
" />
<path d="M74212 32283
L74606 32283
" />
<path d="M74409 34055
L74409 34448
" />
<path d="M74212 34251
L74606 34251
" />
<polyline fill="none;"
points="79384,19632
79384,19131
78883,19131
78883,19632
79384,19632
" /> 
<polyline fill="none;"
points="79384,22600
79384,22099
78883,22099
78883,22600
79384,22600
" /> 
<polyline fill="none;"
points="79384,26325
79384,25824
78883,25824
78883,26325
79384,26325
" /> 
<polyline fill="none;"
points="79384,29293
79384,28792
78883,28792
78883,29293
79384,29293
" /> 
<polyline fill="none;"
points="79384,32624
79384,32123
78883,32123
78883,32624
79384,32624
" /> 
<polyline fill="none;"
points="79384,35593
79384,35091
78883,35091
78883,35593
79384,35593
" /> 
<polyline fill="none;"
points="79384,38923
79384,38422
78883,38422
78883,38923
79384,38923
" /> 
<polyline fill="none;"
points="79384,41892
79384,41391
78883,41391
78883,41892
79384,41892
" /> 
<polyline fill="none;"
points="79384,45616
79384,45115
78883,45115
78883,45616
79384,45616
" /> 
<polyline fill="none;"
points="79384,48585
79384,48084
78883,48084
78883,48585
79384,48585
" /> 
<polyline fill="none;"
points="60433,16003
60826,15610
60433,15216
60039,15610
60433,16003
" /> 
<polyline fill="none;"
points="60433,20216
60826,19822
60433,19429
60039,19822
60433,20216
" /> 
<polyline fill="none;"
points="60433,27814
60826,27421
60433,27027
60039,27421
60433,27814
" /> 
<polyline fill="none;"
points="60433,32027
60826,31633
60433,31240
60039,31633
60433,32027
" /> 
<polyline fill="none;"
points="60433,36476
60826,36082
60433,35688
60039,36082
60433,36476
" /> 
<polyline fill="none;"
points="60433,40688
60826,40295
60433,39901
60039,40295
60433,40688
" /> 
<polyline fill="none;"
points="60433,48287
60826,47893
60433,47500
60039,47893
60433,48287
" /> 
<polyline fill="none;"
points="60433,52500
60826,52106
60433,51712
60039,52106
60433,52500
" /> 
<polyline fill="none;"
points="69094,16003
69488,15610
69094,15216
68700,15610
69094,16003
" /> 
<polyline fill="none;"
points="69094,20216
69488,19822
69094,19429
68700,19822
69094,20216
" /> 
<polyline fill="none;"
points="69094,27814
69488,27421
69094,27027
68700,27421
69094,27814
" /> 
<polyline fill="none;"
points="69094,32027
69488,31633
69094,31240
68700,31633
69094,32027
" /> 
<polyline fill="none;"
points="69094,36476
69488,36082
69094,35688
68700,36082
69094,36476
" /> 
<polyline fill="none;"
points="69094,40688
69488,40295
69094,39901
68700,40295
69094,40688
" /> 
<polyline fill="none;"
points="69094,48287
69488,47893
69094,47500
68700,47893
69094,48287
" /> 
<polyline fill="none;"
points="69094,52500
69488,52106
69094,51712
68700,52106
69094,52500
" /> 
<path d="M53307 15511
L54566 16771
" />
<path d="M54566 15511
L53307 16771
" />
<circle cx="53937" cy="16141.7" r="629.921" /> 
<path d="M53307 33228
L54566 34488
" />
<path d="M54566 33228
L53307 34488
" />
<circle cx="53937" cy="33858.3" r="629.921" /> 
<path d="M53307 50944
L54566 52204
" />
<path d="M54566 50944
L53307 52204
" />
<circle cx="53937" cy="51574.8" r="629.921" /> 
<path d="M43503 15551
L44685 16732
" />
<path d="M44685 15551
L43503 16732
" />
<path d="M44094 15551
L44094 16732
" />
<path d="M43503 16141
L44685 16141
" />
<path d="M43503 50984
L44685 52165
" />
<path d="M44685 50984
L43503 52165
" />
<path d="M44094 50984
L44094 52165
" />
<path d="M43503 51574
L44685 51574
" />
<path d="M78937 15551
L80118 16732
" />
<path d="M80118 15551
L78937 16732
" />
<path d="M79527 15551
L79527 16732
" />
<path d="M78937 16141
L80118 16141
" />
<path d="M78937 50984
L80118 52165
" />
<path d="M80118 50984
L78937 52165
" />
<path d="M79527 50984
L79527 52165
" />
<path d="M78937 51574
L80118 51574
" />
</g>
<g style="fill:#000000; fill-opacity:0.0; 
stroke:#000000; stroke-width:118.11; stroke-opacity:1; 
stroke-linecap:round; stroke-linejoin:round;">
<path d="M43174 55396
L43174 54215
L43456 54215
L43624 54271
L43737 54384
L43793 54496
L43849 54721
L43849 54890
L43793 55115
L43737 55227
L43624 55340
L43456 55396
L43174 55396
" />
<path d="M44356 55396
L44356 54609
" />
<path d="M44356 54834
L44412 54721
L44468 54665
L44580 54609
L44693 54609
" />
<path d="M45087 55396
L45087 54609
" />
<path d="M45087 54215
L45030 54271
L45087 54327
L45143 54271
L45087 54215
L45087 54327
" />
<path d="M45818 55396
L45705 55340
L45649 55227
L45649 54215
" />
<path d="M46437 55396
L46324 55340
L46268 55227
L46268 54215
" />
<path d="M47786 55396
L47786 54215
L48180 55059
L48574 54215
L48574 55396
" />
<path d="M49642 55396
L49642 54777
L49586 54665
L49474 54609
L49249 54609
L49136 54665
" />
<path d="M49642 55340
L49530 55396
L49249 55396
L49136 55340
L49080 55227
L49080 55115
L49136 55002
L49249 54946
L49530 54946
L49642 54890
" />
<path d="M50205 54609
L50205 55790
" />
<path d="M50205 54665
L50317 54609
L50542 54609
L50655 54665
L50711 54721
L50767 54834
L50767 55171
L50711 55284
L50655 55340
L50542 55396
L50317 55396
L50205 55340
" />
<path d="M51273 55284
L51330 55340
L51273 55396
L51217 55340
L51273 55284
L51273 55396
" />
<path d="M51273 54665
L51330 54721
L51273 54777
L51217 54721
L51273 54665
L51273 54777
" />
<path d="M41909 57244
L42106 57440
" />
<path d="M42106 57244
L41909 57440
" />
<path d="M43399 56695
L43512 56695
L43624 56751
L43681 56808
L43737 56920
L43793 57145
L43793 57426
L43737 57651
L43681 57764
L43624 57820
L43512 57876
L43399 57876
L43287 57820
L43231 57764
L43174 57651
L43118 57426
L43118 57145
L43174 56920
L43231 56808
L43287 56751
L43399 56695
" />
<path d="M44299 57764
L44356 57820
L44299 57876
L44243 57820
L44299 57764
L44299 57876
" />
<path d="M45424 56695
L44862 56695
L44805 57258
L44862 57201
L44974 57145
L45255 57145
L45368 57201
L45424 57258
L45480 57370
L45480 57651
L45424 57764
L45368 57820
L45255 57876
L44974 57876
L44862 57820
L44805 57764
" />
<path d="M46212 56695
L46324 56695
L46437 56751
L46493 56808
L46549 56920
L46605 57145
L46605 57426
L46549 57651
L46493 57764
L46437 57820
L46324 57876
L46212 57876
L46099 57820
L46043 57764
L45987 57651
L45930 57426
L45930 57145
L45987 56920
L46043 56808
L46099 56751
L46212 56695
" />
<path d="M47111 57876
L47111 57089
" />
<path d="M47111 57201
L47168 57145
L47280 57089
L47449 57089
L47561 57145
L47618 57258
L47618 57876
" />
<path d="M47618 57258
L47674 57145
L47786 57089
L47955 57089
L48068 57145
L48124 57258
L48124 57876
" />
<path d="M48686 57876
L48686 57089
" />
<path d="M48686 57201
L48742 57145
L48855 57089
L49024 57089
L49136 57145
L49192 57258
L49192 57876
" />
<path d="M49192 57258
L49249 57145
L49361 57089
L49530 57089
L49642 57145
L49699 57258
L49699 57876
" />
<path d="M52005 56639
L50992 58158
" />
<path d="M53523 56695
L53636 56695
L53748 56751
L53804 56808
L53861 56920
L53917 57145
L53917 57426
L53861 57651
L53804 57764
L53748 57820
L53636 57876
L53523 57876
L53411 57820
L53354 57764
L53298 57651
L53242 57426
L53242 57145
L53298 56920
L53354 56808
L53411 56751
L53523 56695
" />
<path d="M54423 57764
L54479 57820
L54423 57876
L54367 57820
L54423 57764
L54423 57876
" />
<path d="M55210 56695
L55323 56695
L55435 56751
L55492 56808
L55548 56920
L55604 57145
L55604 57426
L55548 57651
L55492 57764
L55435 57820
L55323 57876
L55210 57876
L55098 57820
L55042 57764
L54985 57651
L54929 57426
L54929 57145
L54985 56920
L55042 56808
L55098 56751
L55210 56695
" />
<path d="M56054 56808
L56110 56751
L56223 56695
L56504 56695
L56616 56751
L56673 56808
L56729 56920
L56729 57033
L56673 57201
L55998 57876
L56729 57876
" />
<path d="M57460 56695
L57573 56695
L57685 56751
L57741 56808
L57798 56920
L57854 57145
L57854 57426
L57798 57651
L57741 57764
L57685 57820
L57573 57876
L57460 57876
L57348 57820
L57291 57764
L57235 57651
L57179 57426
L57179 57145
L57235 56920
L57291 56808
L57348 56751
L57460 56695
" />
<path d="M58304 56695
L58304 56920
" />
<path d="M58754 56695
L58754 56920
" />
<path d="M60497 58326
L60441 58270
L60329 58101
L60272 57989
L60216 57820
L60160 57539
L60160 57314
L60216 57033
L60272 56864
L60329 56751
L60441 56583
L60497 56526
" />
<path d="M60891 56808
L60947 56751
L61060 56695
L61341 56695
L61453 56751
L61510 56808
L61566 56920
L61566 57033
L61510 57201
L60835 57876
L61566 57876
" />
<path d="M62634 56695
L62072 56695
L62016 57258
L62072 57201
L62185 57145
L62466 57145
L62578 57201
L62634 57258
L62691 57370
L62691 57651
L62634 57764
L62578 57820
L62466 57876
L62185 57876
L62072 57820
L62016 57764
" />
<path d="M63366 57201
L63253 57145
L63197 57089
L63141 56976
L63141 56920
L63197 56808
L63253 56751
L63366 56695
L63591 56695
L63703 56751
L63759 56808
L63816 56920
L63816 56976
L63759 57089
L63703 57145
L63591 57201
L63366 57201
L63253 57258
L63197 57314
L63141 57426
L63141 57651
L63197 57764
L63253 57820
L63366 57876
L63591 57876
L63703 57820
L63759 57764
L63816 57651
L63816 57426
L63759 57314
L63703 57258
L63591 57201
" />
<path d="M65222 57876
L65222 56695
" />
<path d="M65728 57876
L65728 57258
L65672 57145
L65559 57089
L65390 57089
L65278 57145
L65222 57201
" />
<path d="M66459 57876
L66347 57820
L66290 57764
L66234 57651
L66234 57314
L66290 57201
L66347 57145
L66459 57089
L66628 57089
L66740 57145
L66796 57201
L66853 57314
L66853 57651
L66796 57764
L66740 57820
L66628 57876
L66459 57876
" />
<path d="M67528 57876
L67415 57820
L67359 57708
L67359 56695
" />
<path d="M68428 57820
L68315 57876
L68090 57876
L67978 57820
L67921 57708
L67921 57258
L67978 57145
L68090 57089
L68315 57089
L68428 57145
L68484 57258
L68484 57370
L67921 57483
" />
<path d="M68934 57820
L69046 57876
L69271 57876
L69384 57820
L69440 57708
L69440 57651
L69384 57539
L69271 57483
L69102 57483
L68990 57426
L68934 57314
L68934 57258
L68990 57145
L69102 57089
L69271 57089
L69384 57145
" />
<path d="M69834 58326
L69890 58270
L70002 58101
L70059 57989
L70115 57820
L70171 57539
L70171 57314
L70115 57033
L70059 56864
L70002 56751
L69890 56583
L69834 56526
" />
<circle cx="41948.8" cy="58901.6" r="157.48" /> 
<path d="M43399 58254
L43512 58254
L43624 58311
L43681 58367
L43737 58479
L43793 58704
L43793 58985
L43737 59210
L43681 59323
L43624 59379
L43512 59435
L43399 59435
L43287 59379
L43231 59323
L43174 59210
L43118 58985
L43118 58704
L43174 58479
L43231 58367
L43287 58311
L43399 58254
" />
<path d="M44299 59323
L44356 59379
L44299 59435
L44243 59379
L44299 59323
L44299 59435
" />
<path d="M45030 58760
L44918 58704
L44862 58648
L44805 58535
L44805 58479
L44862 58367
L44918 58311
L45030 58254
L45255 58254
L45368 58311
L45424 58367
L45480 58479
L45480 58535
L45424 58648
L45368 58704
L45255 58760
L45030 58760
L44918 58817
L44862 58873
L44805 58985
L44805 59210
L44862 59323
L44918 59379
L45030 59435
L45255 59435
L45368 59379
L45424 59323
L45480 59210
L45480 58985
L45424 58873
L45368 58817
L45255 58760
" />
<path d="M46212 58254
L46324 58254
L46437 58311
L46493 58367
L46549 58479
L46605 58704
L46605 58985
L46549 59210
L46493 59323
L46437 59379
L46324 59435
L46212 59435
L46099 59379
L46043 59323
L45987 59210
L45930 58985
L45930 58704
L45987 58479
L46043 58367
L46099 58311
L46212 58254
" />
<path d="M47111 59435
L47111 58648
" />
<path d="M47111 58760
L47168 58704
L47280 58648
L47449 58648
L47561 58704
L47618 58817
L47618 59435
" />
<path d="M47618 58817
L47674 58704
L47786 58648
L47955 58648
L48068 58704
L48124 58817
L48124 59435
" />
<path d="M48686 59435
L48686 58648
" />
<path d="M48686 58760
L48742 58704
L48855 58648
L49024 58648
L49136 58704
L49192 58817
L49192 59435
" />
<path d="M49192 58817
L49249 58704
L49361 58648
L49530 58648
L49642 58704
L49699 58817
L49699 59435
" />
<path d="M52005 58198
L50992 59717
" />
<path d="M53523 58254
L53636 58254
L53748 58311
L53804 58367
L53861 58479
L53917 58704
L53917 58985
L53861 59210
L53804 59323
L53748 59379
L53636 59435
L53523 59435
L53411 59379
L53354 59323
L53298 59210
L53242 58985
L53242 58704
L53298 58479
L53354 58367
L53411 58311
L53523 58254
" />
<path d="M54423 59323
L54479 59379
L54423 59435
L54367 59379
L54423 59323
L54423 59435
" />
<path d="M55210 58254
L55323 58254
L55435 58311
L55492 58367
L55548 58479
L55604 58704
L55604 58985
L55548 59210
L55492 59323
L55435 59379
L55323 59435
L55210 59435
L55098 59379
L55042 59323
L54985 59210
L54929 58985
L54929 58704
L54985 58479
L55042 58367
L55098 58311
L55210 58254
" />
<path d="M55998 58254
L56729 58254
L56335 58704
L56504 58704
L56616 58760
L56673 58817
L56729 58929
L56729 59210
L56673 59323
L56616 59379
L56504 59435
L56167 59435
L56054 59379
L55998 59323
" />
<path d="M57854 59435
L57179 59435
" />
<path d="M57516 59435
L57516 58254
L57404 58423
L57291 58535
L57179 58592
" />
<path d="M58304 58254
L58304 58479
" />
<path d="M58754 58254
L58754 58479
" />
<path d="M60497 59885
L60441 59829
L60329 59660
L60272 59548
L60216 59379
L60160 59098
L60160 58873
L60216 58592
L60272 58423
L60329 58311
L60441 58142
L60497 58086
" />
<path d="M61003 59435
L61228 59435
L61341 59379
L61397 59323
L61510 59154
L61566 58929
L61566 58479
L61510 58367
L61453 58311
L61341 58254
L61116 58254
L61003 58311
L60947 58367
L60891 58479
L60891 58760
L60947 58873
L61003 58929
L61116 58985
L61341 58985
L61453 58929
L61510 58873
L61566 58760
" />
<path d="M62578 58254
L62353 58254
L62241 58311
L62185 58367
L62072 58535
L62016 58760
L62016 59210
L62072 59323
L62128 59379
L62241 59435
L62466 59435
L62578 59379
L62634 59323
L62691 59210
L62691 58929
L62634 58817
L62578 58760
L62466 58704
L62241 58704
L62128 58760
L62072 58817
L62016 58929
" />
<path d="M64097 59435
L64097 58254
" />
<path d="M64603 59435
L64603 58817
L64547 58704
L64434 58648
L64266 58648
L64153 58704
L64097 58760
" />
<path d="M65334 59435
L65222 59379
L65165 59323
L65109 59210
L65109 58873
L65165 58760
L65222 58704
L65334 58648
L65503 58648
L65615 58704
L65672 58760
L65728 58873
L65728 59210
L65672 59323
L65615 59379
L65503 59435
L65334 59435
" />
<path d="M66403 59435
L66290 59379
L66234 59267
L66234 58254
" />
<path d="M67303 59379
L67190 59435
L66965 59435
L66853 59379
L66796 59267
L66796 58817
L66853 58704
L66965 58648
L67190 58648
L67303 58704
L67359 58817
L67359 58929
L66796 59042
" />
<path d="M67809 59379
L67921 59435
L68146 59435
L68259 59379
L68315 59267
L68315 59210
L68259 59098
L68146 59042
L67978 59042
L67865 58985
L67809 58873
L67809 58817
L67865 58704
L67978 58648
L68146 58648
L68259 58704
" />
<path d="M68709 59885
L68765 59829
L68877 59660
L68934 59548
L68990 59379
L69046 59098
L69046 58873
L68990 58592
L68934 58423
L68877 58311
L68765 58142
L68709 58086
" />
<path d="M41909 60263
L41909 60657
" />
<path d="M41712 60460
L42106 60460
" />
<path d="M43793 60994
L43118 60994
" />
<path d="M43456 60994
L43456 59813
L43343 59982
L43231 60095
L43118 60151
" />
<path d="M44299 60882
L44356 60938
L44299 60994
L44243 60938
L44299 60882
L44299 60994
" />
<path d="M45087 59813
L45199 59813
L45312 59870
L45368 59926
L45424 60038
L45480 60263
L45480 60544
L45424 60769
L45368 60882
L45312 60938
L45199 60994
L45087 60994
L44974 60938
L44918 60882
L44862 60769
L44805 60544
L44805 60263
L44862 60038
L44918 59926
L44974 59870
L45087 59813
" />
<path d="M46212 59813
L46324 59813
L46437 59870
L46493 59926
L46549 60038
L46605 60263
L46605 60544
L46549 60769
L46493 60882
L46437 60938
L46324 60994
L46212 60994
L46099 60938
L46043 60882
L45987 60769
L45930 60544
L45930 60263
L45987 60038
L46043 59926
L46099 59870
L46212 59813
" />
<path d="M47111 60994
L47111 60207
" />
<path d="M47111 60320
L47168 60263
L47280 60207
L47449 60207
L47561 60263
L47618 60376
L47618 60994
" />
<path d="M47618 60376
L47674 60263
L47786 60207
L47955 60207
L48068 60263
L48124 60376
L48124 60994
" />
<path d="M48686 60994
L48686 60207
" />
<path d="M48686 60320
L48742 60263
L48855 60207
L49024 60207
L49136 60263
L49192 60376
L49192 60994
" />
<path d="M49192 60376
L49249 60263
L49361 60207
L49530 60207
L49642 60263
L49699 60376
L49699 60994
" />
<path d="M52005 59757
L50992 61276
" />
<path d="M53523 59813
L53636 59813
L53748 59870
L53804 59926
L53861 60038
L53917 60263
L53917 60544
L53861 60769
L53804 60882
L53748 60938
L53636 60994
L53523 60994
L53411 60938
L53354 60882
L53298 60769
L53242 60544
L53242 60263
L53298 60038
L53354 59926
L53411 59870
L53523 59813
" />
<path d="M54423 60882
L54479 60938
L54423 60994
L54367 60938
L54423 60882
L54423 60994
" />
<path d="M55210 59813
L55323 59813
L55435 59870
L55492 59926
L55548 60038
L55604 60263
L55604 60544
L55548 60769
L55492 60882
L55435 60938
L55323 60994
L55210 60994
L55098 60938
L55042 60882
L54985 60769
L54929 60544
L54929 60263
L54985 60038
L55042 59926
L55098 59870
L55210 59813
" />
<path d="M55998 59813
L56729 59813
L56335 60263
L56504 60263
L56616 60320
L56673 60376
L56729 60488
L56729 60769
L56673 60882
L56616 60938
L56504 60994
L56167 60994
L56054 60938
L55998 60882
" />
<path d="M57291 60994
L57516 60994
L57629 60938
L57685 60882
L57798 60713
L57854 60488
L57854 60038
L57798 59926
L57741 59870
L57629 59813
L57404 59813
L57291 59870
L57235 59926
L57179 60038
L57179 60320
L57235 60432
L57291 60488
L57404 60544
L57629 60544
L57741 60488
L57798 60432
L57854 60320
" />
<path d="M58304 59813
L58304 60038
" />
<path d="M58754 59813
L58754 60038
" />
<path d="M60497 61444
L60441 61388
L60329 61219
L60272 61107
L60216 60938
L60160 60657
L60160 60432
L60216 60151
L60272 59982
L60329 59870
L60441 59701
L60497 59645
" />
<path d="M61453 60207
L61453 60994
" />
<path d="M61172 59757
L60891 60601
L61622 60601
" />
<path d="M62578 60207
L62578 60994
" />
<path d="M62297 59757
L62016 60601
L62747 60601
" />
<path d="M64097 60994
L64097 59813
" />
<path d="M64603 60994
L64603 60376
L64547 60263
L64434 60207
L64266 60207
L64153 60263
L64097 60320
" />
<path d="M65334 60994
L65222 60938
L65165 60882
L65109 60769
L65109 60432
L65165 60320
L65222 60263
L65334 60207
L65503 60207
L65615 60263
L65672 60320
L65728 60432
L65728 60769
L65672 60882
L65615 60938
L65503 60994
L65334 60994
" />
<path d="M66403 60994
L66290 60938
L66234 60826
L66234 59813
" />
<path d="M67303 60938
L67190 60994
L66965 60994
L66853 60938
L66796 60826
L66796 60376
L66853 60263
L66965 60207
L67190 60207
L67303 60263
L67359 60376
L67359 60488
L66796 60601
" />
<path d="M67809 60938
L67921 60994
L68146 60994
L68259 60938
L68315 60826
L68315 60769
L68259 60657
L68146 60601
L67978 60601
L67865 60544
L67809 60432
L67809 60376
L67865 60263
L67978 60207
L68146 60207
L68259 60263
" />
<path d="M68709 61444
L68765 61388
L68877 61219
L68934 61107
L68990 60938
L69046 60657
L69046 60432
L68990 60151
L68934 59982
L68877 59870
L68765 59701
L68709 59645
" />
<polyline fill="none;"
points="42002,62270
42002,61769
41501,61769
41501,62270
42002,62270
" /> 
<path d="M43793 62553
L43118 62553
" />
<path d="M43456 62553
L43456 61372
L43343 61541
L43231 61654
L43118 61710
" />
<path d="M44299 62441
L44356 62497
L44299 62553
L44243 62497
L44299 62441
L44299 62553
" />
<path d="M45030 61879
L44918 61822
L44862 61766
L44805 61654
L44805 61597
L44862 61485
L44918 61429
L45030 61372
L45255 61372
L45368 61429
L45424 61485
L45480 61597
L45480 61654
L45424 61766
L45368 61822
L45255 61879
L45030 61879
L44918 61935
L44862 61991
L44805 62104
L44805 62329
L44862 62441
L44918 62497
L45030 62553
L45255 62553
L45368 62497
L45424 62441
L45480 62329
L45480 62104
L45424 61991
L45368 61935
L45255 61879
" />
<path d="M46212 61372
L46324 61372
L46437 61429
L46493 61485
L46549 61597
L46605 61822
L46605 62104
L46549 62329
L46493 62441
L46437 62497
L46324 62553
L46212 62553
L46099 62497
L46043 62441
L45987 62329
L45930 62104
L45930 61822
L45987 61597
L46043 61485
L46099 61429
L46212 61372
" />
<path d="M47111 62553
L47111 61766
" />
<path d="M47111 61879
L47168 61822
L47280 61766
L47449 61766
L47561 61822
L47618 61935
L47618 62553
" />
<path d="M47618 61935
L47674 61822
L47786 61766
L47955 61766
L48068 61822
L48124 61935
L48124 62553
" />
<path d="M48686 62553
L48686 61766
" />
<path d="M48686 61879
L48742 61822
L48855 61766
L49024 61766
L49136 61822
L49192 61935
L49192 62553
" />
<path d="M49192 61935
L49249 61822
L49361 61766
L49530 61766
L49642 61822
L49699 61935
L49699 62553
" />
<path d="M52005 61316
L50992 62835
" />
<path d="M53523 61372
L53636 61372
L53748 61429
L53804 61485
L53861 61597
L53917 61822
L53917 62104
L53861 62329
L53804 62441
L53748 62497
L53636 62553
L53523 62553
L53411 62497
L53354 62441
L53298 62329
L53242 62104
L53242 61822
L53298 61597
L53354 61485
L53411 61429
L53523 61372
" />
<path d="M54423 62441
L54479 62497
L54423 62553
L54367 62497
L54423 62441
L54423 62553
" />
<path d="M55210 61372
L55323 61372
L55435 61429
L55492 61485
L55548 61597
L55604 61822
L55604 62104
L55548 62329
L55492 62441
L55435 62497
L55323 62553
L55210 62553
L55098 62497
L55042 62441
L54985 62329
L54929 62104
L54929 61822
L54985 61597
L55042 61485
L55098 61429
L55210 61372
" />
<path d="M55998 61372
L56785 61372
L56279 62553
" />
<path d="M57854 62553
L57179 62553
" />
<path d="M57516 62553
L57516 61372
L57404 61541
L57291 61654
L57179 61710
" />
<path d="M58304 61372
L58304 61597
" />
<path d="M58754 61372
L58754 61597
" />
<path d="M60497 63003
L60441 62947
L60329 62778
L60272 62666
L60216 62497
L60160 62216
L60160 61991
L60216 61710
L60272 61541
L60329 61429
L60441 61260
L60497 61204
" />
<path d="M61566 62553
L60891 62553
" />
<path d="M61228 62553
L61228 61372
L61116 61541
L61003 61654
L60891 61710
" />
<path d="M62297 61372
L62410 61372
L62522 61429
L62578 61485
L62634 61597
L62691 61822
L62691 62104
L62634 62329
L62578 62441
L62522 62497
L62410 62553
L62297 62553
L62185 62497
L62128 62441
L62072 62329
L62016 62104
L62016 61822
L62072 61597
L62128 61485
L62185 61429
L62297 61372
" />
<path d="M64097 62553
L64097 61372
" />
<path d="M64603 62553
L64603 61935
L64547 61822
L64434 61766
L64266 61766
L64153 61822
L64097 61879
" />
<path d="M65334 62553
L65222 62497
L65165 62441
L65109 62329
L65109 61991
L65165 61879
L65222 61822
L65334 61766
L65503 61766
L65615 61822
L65672 61879
L65728 61991
L65728 62329
L65672 62441
L65615 62497
L65503 62553
L65334 62553
" />
<path d="M66403 62553
L66290 62497
L66234 62385
L66234 61372
" />
<path d="M67303 62497
L67190 62553
L66965 62553
L66853 62497
L66796 62385
L66796 61935
L66853 61822
L66965 61766
L67190 61766
L67303 61822
L67359 61935
L67359 62047
L66796 62160
" />
<path d="M67809 62497
L67921 62553
L68146 62553
L68259 62497
L68315 62385
L68315 62329
L68259 62216
L68146 62160
L67978 62160
L67865 62104
L67809 61991
L67809 61935
L67865 61822
L67978 61766
L68146 61766
L68259 61822
" />
<path d="M68709 63003
L68765 62947
L68877 62778
L68934 62666
L68990 62497
L69046 62216
L69046 61991
L68990 61710
L68934 61541
L68877 61429
L68765 61260
L68709 61204
" />
<polyline fill="none;"
points="41712,63972
42106,63578
41712,63185
41318,63578
41712,63972
" /> 
<path d="M43118 63044
L43174 62988
L43287 62931
L43568 62931
L43681 62988
L43737 63044
L43793 63156
L43793 63269
L43737 63438
L43062 64113
L43793 64113
" />
<path d="M44299 64000
L44356 64056
L44299 64113
L44243 64056
L44299 64000
L44299 64113
" />
<path d="M45087 62931
L45199 62931
L45312 62988
L45368 63044
L45424 63156
L45480 63381
L45480 63663
L45424 63888
L45368 64000
L45312 64056
L45199 64113
L45087 64113
L44974 64056
L44918 64000
L44862 63888
L44805 63663
L44805 63381
L44862 63156
L44918 63044
L44974 62988
L45087 62931
" />
<path d="M46212 62931
L46324 62931
L46437 62988
L46493 63044
L46549 63156
L46605 63381
L46605 63663
L46549 63888
L46493 64000
L46437 64056
L46324 64113
L46212 64113
L46099 64056
L46043 64000
L45987 63888
L45930 63663
L45930 63381
L45987 63156
L46043 63044
L46099 62988
L46212 62931
" />
<path d="M47111 64113
L47111 63325
" />
<path d="M47111 63438
L47168 63381
L47280 63325
L47449 63325
L47561 63381
L47618 63494
L47618 64113
" />
<path d="M47618 63494
L47674 63381
L47786 63325
L47955 63325
L48068 63381
L48124 63494
L48124 64113
" />
<path d="M48686 64113
L48686 63325
" />
<path d="M48686 63438
L48742 63381
L48855 63325
L49024 63325
L49136 63381
L49192 63494
L49192 64113
" />
<path d="M49192 63494
L49249 63381
L49361 63325
L49530 63325
L49642 63381
L49699 63494
L49699 64113
" />
<path d="M52005 62875
L50992 64394
" />
<path d="M53523 62931
L53636 62931
L53748 62988
L53804 63044
L53861 63156
L53917 63381
L53917 63663
L53861 63888
L53804 64000
L53748 64056
L53636 64113
L53523 64113
L53411 64056
L53354 64000
L53298 63888
L53242 63663
L53242 63381
L53298 63156
L53354 63044
L53411 62988
L53523 62931
" />
<path d="M54423 64000
L54479 64056
L54423 64113
L54367 64056
L54423 64000
L54423 64113
" />
<path d="M55210 62931
L55323 62931
L55435 62988
L55492 63044
L55548 63156
L55604 63381
L55604 63663
L55548 63888
L55492 64000
L55435 64056
L55323 64113
L55210 64113
L55098 64056
L55042 64000
L54985 63888
L54929 63663
L54929 63381
L54985 63156
L55042 63044
L55098 62988
L55210 62931
" />
<path d="M55998 62931
L56785 62931
L56279 64113
" />
<path d="M57291 64113
L57516 64113
L57629 64056
L57685 64000
L57798 63831
L57854 63606
L57854 63156
L57798 63044
L57741 62988
L57629 62931
L57404 62931
L57291 62988
L57235 63044
L57179 63156
L57179 63438
L57235 63550
L57291 63606
L57404 63663
L57629 63663
L57741 63606
L57798 63550
L57854 63438
" />
<path d="M58304 62931
L58304 63156
" />
<path d="M58754 62931
L58754 63156
" />
<path d="M60497 64562
L60441 64506
L60329 64338
L60272 64225
L60216 64056
L60160 63775
L60160 63550
L60216 63269
L60272 63100
L60329 62988
L60441 62819
L60497 62763
" />
<path d="M61566 64113
L60891 64113
" />
<path d="M61228 64113
L61228 62931
L61116 63100
L61003 63213
L60891 63269
" />
<path d="M62578 62931
L62353 62931
L62241 62988
L62185 63044
L62072 63213
L62016 63438
L62016 63888
L62072 64000
L62128 64056
L62241 64113
L62466 64113
L62578 64056
L62634 64000
L62691 63888
L62691 63606
L62634 63494
L62578 63438
L62466 63381
L62241 63381
L62128 63438
L62072 63494
L62016 63606
" />
<path d="M64097 64113
L64097 62931
" />
<path d="M64603 64113
L64603 63494
L64547 63381
L64434 63325
L64266 63325
L64153 63381
L64097 63438
" />
<path d="M65334 64113
L65222 64056
L65165 64000
L65109 63888
L65109 63550
L65165 63438
L65222 63381
L65334 63325
L65503 63325
L65615 63381
L65672 63438
L65728 63550
L65728 63888
L65672 64000
L65615 64056
L65503 64113
L65334 64113
" />
<path d="M66403 64113
L66290 64056
L66234 63944
L66234 62931
" />
<path d="M67303 64056
L67190 64113
L66965 64113
L66853 64056
L66796 63944
L66796 63494
L66853 63381
L66965 63325
L67190 63325
L67303 63381
L67359 63494
L67359 63606
L66796 63719
" />
<path d="M67809 64056
L67921 64113
L68146 64113
L68259 64056
L68315 63944
L68315 63888
L68259 63775
L68146 63719
L67978 63719
L67865 63663
L67809 63550
L67809 63494
L67865 63381
L67978 63325
L68146 63325
L68259 63381
" />
<path d="M68709 64562
L68765 64506
L68877 64338
L68934 64225
L68990 64056
L69046 63775
L69046 63550
L68990 63269
L68934 63100
L68877 62988
L68765 62819
L68709 62763
" />
<path d="M40846 64507
L42106 65767
" />
<path d="M42106 64507
L40846 65767
" />
<circle cx="41476.4" cy="65137.8" r="629.921" /> 
<path d="M43062 64491
L43793 64491
L43399 64940
L43568 64940
L43681 64997
L43737 65053
L43793 65165
L43793 65447
L43737 65559
L43681 65615
L43568 65672
L43231 65672
L43118 65615
L43062 65559
" />
<path d="M44299 65559
L44356 65615
L44299 65672
L44243 65615
L44299 65559
L44299 65672
" />
<path d="M44805 64603
L44862 64547
L44974 64491
L45255 64491
L45368 64547
L45424 64603
L45480 64715
L45480 64828
L45424 64997
L44749 65672
L45480 65672
" />
<path d="M46212 64491
L46324 64491
L46437 64547
L46493 64603
L46549 64715
L46605 64940
L46605 65222
L46549 65447
L46493 65559
L46437 65615
L46324 65672
L46212 65672
L46099 65615
L46043 65559
L45987 65447
L45930 65222
L45930 64940
L45987 64715
L46043 64603
L46099 64547
L46212 64491
" />
<path d="M47111 65672
L47111 64884
" />
<path d="M47111 64997
L47168 64940
L47280 64884
L47449 64884
L47561 64940
L47618 65053
L47618 65672
" />
<path d="M47618 65053
L47674 64940
L47786 64884
L47955 64884
L48068 64940
L48124 65053
L48124 65672
" />
<path d="M48686 65672
L48686 64884
" />
<path d="M48686 64997
L48742 64940
L48855 64884
L49024 64884
L49136 64940
L49192 65053
L49192 65672
" />
<path d="M49192 65053
L49249 64940
L49361 64884
L49530 64884
L49642 64940
L49699 65053
L49699 65672
" />
<path d="M52005 64434
L50992 65953
" />
<path d="M53523 64491
L53636 64491
L53748 64547
L53804 64603
L53861 64715
L53917 64940
L53917 65222
L53861 65447
L53804 65559
L53748 65615
L53636 65672
L53523 65672
L53411 65615
L53354 65559
L53298 65447
L53242 65222
L53242 64940
L53298 64715
L53354 64603
L53411 64547
L53523 64491
" />
<path d="M54423 65559
L54479 65615
L54423 65672
L54367 65615
L54423 65559
L54423 65672
" />
<path d="M55604 65672
L54929 65672
" />
<path d="M55267 65672
L55267 64491
L55154 64659
L55042 64772
L54929 64828
" />
<path d="M56054 64603
L56110 64547
L56223 64491
L56504 64491
L56616 64547
L56673 64603
L56729 64715
L56729 64828
L56673 64997
L55998 65672
L56729 65672
" />
<path d="M57741 64491
L57516 64491
L57404 64547
L57348 64603
L57235 64772
L57179 64997
L57179 65447
L57235 65559
L57291 65615
L57404 65672
L57629 65672
L57741 65615
L57798 65559
L57854 65447
L57854 65165
L57798 65053
L57741 64997
L57629 64940
L57404 64940
L57291 64997
L57235 65053
L57179 65165
" />
<path d="M58304 64491
L58304 64715
" />
<path d="M58754 64491
L58754 64715
" />
<path d="M60497 66122
L60441 66065
L60329 65897
L60272 65784
L60216 65615
L60160 65334
L60160 65109
L60216 64828
L60272 64659
L60329 64547
L60441 64378
L60497 64322
" />
<path d="M60835 64491
L61566 64491
L61172 64940
L61341 64940
L61453 64997
L61510 65053
L61566 65165
L61566 65447
L61510 65559
L61453 65615
L61341 65672
L61003 65672
L60891 65615
L60835 65559
" />
<path d="M62972 65672
L62972 64491
" />
<path d="M63478 65672
L63478 65053
L63422 64940
L63309 64884
L63141 64884
L63028 64940
L62972 64997
" />
<path d="M64209 65672
L64097 65615
L64041 65559
L63984 65447
L63984 65109
L64041 64997
L64097 64940
L64209 64884
L64378 64884
L64491 64940
L64547 64997
L64603 65109
L64603 65447
L64547 65559
L64491 65615
L64378 65672
L64209 65672
" />
<path d="M65278 65672
L65165 65615
L65109 65503
L65109 64491
" />
<path d="M66178 65615
L66065 65672
L65840 65672
L65728 65615
L65672 65503
L65672 65053
L65728 64940
L65840 64884
L66065 64884
L66178 64940
L66234 65053
L66234 65165
L65672 65278
" />
<path d="M66684 65615
L66796 65672
L67021 65672
L67134 65615
L67190 65503
L67190 65447
L67134 65334
L67021 65278
L66853 65278
L66740 65222
L66684 65109
L66684 65053
L66740 64940
L66853 64884
L67021 64884
L67134 64940
" />
<path d="M67584 66122
L67640 66065
L67753 65897
L67809 65784
L67865 65615
L67921 65334
L67921 65109
L67865 64828
L67809 64659
L67753 64547
L67640 64378
L67584 64322
" />
<path d="M40925 66318
L42106 67500
" />
<path d="M42106 66318
L40925 67500
" />
<path d="M41515 66318
L41515 67500
" />
<path d="M40925 66909
L42106 66909
" />
<path d="M43062 66262
L43793 66262
L43399 66712
L43568 66712
L43681 66768
L43737 66825
L43793 66937
L43793 67218
L43737 67331
L43681 67387
L43568 67443
L43231 67443
L43118 67387
L43062 67331
" />
<path d="M44299 67331
L44356 67387
L44299 67443
L44243 67387
L44299 67331
L44299 67443
" />
<path d="M45087 66262
L45199 66262
L45312 66318
L45368 66375
L45424 66487
L45480 66712
L45480 66993
L45424 67218
L45368 67331
L45312 67387
L45199 67443
L45087 67443
L44974 67387
L44918 67331
L44862 67218
L44805 66993
L44805 66712
L44862 66487
L44918 66375
L44974 66318
L45087 66262
" />
<path d="M46212 66262
L46324 66262
L46437 66318
L46493 66375
L46549 66487
L46605 66712
L46605 66993
L46549 67218
L46493 67331
L46437 67387
L46324 67443
L46212 67443
L46099 67387
L46043 67331
L45987 67218
L45930 66993
L45930 66712
L45987 66487
L46043 66375
L46099 66318
L46212 66262
" />
<path d="M47111 67443
L47111 66656
" />
<path d="M47111 66768
L47168 66712
L47280 66656
L47449 66656
L47561 66712
L47618 66825
L47618 67443
" />
<path d="M47618 66825
L47674 66712
L47786 66656
L47955 66656
L48068 66712
L48124 66825
L48124 67443
" />
<path d="M48686 67443
L48686 66656
" />
<path d="M48686 66768
L48742 66712
L48855 66656
L49024 66656
L49136 66712
L49192 66825
L49192 67443
" />
<path d="M49192 66825
L49249 66712
L49361 66656
L49530 66656
L49642 66712
L49699 66825
L49699 67443
" />
<path d="M52005 66206
L50992 67724
" />
<path d="M53523 66262
L53636 66262
L53748 66318
L53804 66375
L53861 66487
L53917 66712
L53917 66993
L53861 67218
L53804 67331
L53748 67387
L53636 67443
L53523 67443
L53411 67387
L53354 67331
L53298 67218
L53242 66993
L53242 66712
L53298 66487
L53354 66375
L53411 66318
L53523 66262
" />
<path d="M54423 67331
L54479 67387
L54423 67443
L54367 67387
L54423 67331
L54423 67443
" />
<path d="M55604 67443
L54929 67443
" />
<path d="M55267 67443
L55267 66262
L55154 66431
L55042 66543
L54929 66600
" />
<path d="M56729 67443
L56054 67443
" />
<path d="M56392 67443
L56392 66262
L56279 66431
L56167 66543
L56054 66600
" />
<path d="M57404 66768
L57291 66712
L57235 66656
L57179 66543
L57179 66487
L57235 66375
L57291 66318
L57404 66262
L57629 66262
L57741 66318
L57798 66375
L57854 66487
L57854 66543
L57798 66656
L57741 66712
L57629 66768
L57404 66768
L57291 66825
L57235 66881
L57179 66993
L57179 67218
L57235 67331
L57291 67387
L57404 67443
L57629 67443
L57741 67387
L57798 67331
L57854 67218
L57854 66993
L57798 66881
L57741 66825
L57629 66768
" />
<path d="M58304 66262
L58304 66487
" />
<path d="M58754 66262
L58754 66487
" />
<path d="M60497 67893
L60441 67837
L60329 67668
L60272 67556
L60216 67387
L60160 67106
L60160 66881
L60216 66600
L60272 66431
L60329 66318
L60441 66150
L60497 66093
" />
<path d="M61453 66656
L61453 67443
" />
<path d="M61172 66206
L60891 67050
L61622 67050
" />
<path d="M62972 67443
L62972 66262
" />
<path d="M63478 67443
L63478 66825
L63422 66712
L63309 66656
L63141 66656
L63028 66712
L62972 66768
" />
<path d="M64209 67443
L64097 67387
L64041 67331
L63984 67218
L63984 66881
L64041 66768
L64097 66712
L64209 66656
L64378 66656
L64491 66712
L64547 66768
L64603 66881
L64603 67218
L64547 67331
L64491 67387
L64378 67443
L64209 67443
" />
<path d="M65278 67443
L65165 67387
L65109 67275
L65109 66262
" />
<path d="M66178 67387
L66065 67443
L65840 67443
L65728 67387
L65672 67275
L65672 66825
L65728 66712
L65840 66656
L66065 66656
L66178 66712
L66234 66825
L66234 66937
L65672 67050
" />
<path d="M66684 67387
L66796 67443
L67021 67443
L67134 67387
L67190 67275
L67190 67218
L67134 67106
L67021 67050
L66853 67050
L66740 66993
L66684 66881
L66684 66825
L66740 66712
L66853 66656
L67021 66656
L67134 66712
" />
<path d="M67584 67893
L67640 67837
L67753 67668
L67809 67556
L67865 67387
L67921 67106
L67921 66881
L67865 66600
L67809 66431
L67753 66318
L67640 66150
L67584 66093
" />
<path d="M69721 67893
L69665 67837
L69552 67668
L69496 67556
L69440 67387
L69384 67106
L69384 66881
L69440 66600
L69496 66431
L69552 66318
L69665 66150
L69721 66093
" />
<path d="M70171 66656
L70171 67443
" />
<path d="M70171 66768
L70227 66712
L70340 66656
L70508 66656
L70621 66712
L70677 66825
L70677 67443
" />
<path d="M71408 67443
L71296 67387
L71240 67331
L71183 67218
L71183 66881
L71240 66768
L71296 66712
L71408 66656
L71577 66656
L71690 66712
L71746 66768
L71802 66881
L71802 67218
L71746 67331
L71690 67387
L71577 67443
L71408 67443
" />
<path d="M72140 66656
L72589 66656
" />
<path d="M72308 66262
L72308 67275
L72365 67387
L72477 67443
L72589 67443
" />
<path d="M73883 66656
L73883 67837
" />
<path d="M73883 66712
L73996 66656
L74221 66656
L74333 66712
L74389 66768
L74446 66881
L74446 67218
L74389 67331
L74333 67387
L74221 67443
L73996 67443
L73883 67387
" />
<path d="M75120 67443
L75008 67387
L74952 67275
L74952 66262
" />
<path d="M76077 67443
L76077 66825
L76020 66712
L75908 66656
L75683 66656
L75570 66712
" />
<path d="M76077 67387
L75964 67443
L75683 67443
L75570 67387
L75514 67275
L75514 67162
L75570 67050
L75683 66993
L75964 66993
L76077 66937
" />
<path d="M76470 66656
L76920 66656
" />
<path d="M76639 66262
L76639 67275
L76695 67387
L76808 67443
L76920 67443
" />
<path d="M77764 67387
L77651 67443
L77426 67443
L77314 67387
L77258 67275
L77258 66825
L77314 66712
L77426 66656
L77651 66656
L77764 66712
L77820 66825
L77820 66937
L77258 67050
" />
<path d="M78832 67443
L78832 66262
" />
<path d="M78832 67387
L78720 67443
L78495 67443
L78383 67387
L78326 67331
L78270 67218
L78270 66881
L78326 66768
L78383 66712
L78495 66656
L78720 66656
L78832 66712
" />
<path d="M79282 67893
L79339 67837
L79451 67668
L79507 67556
L79564 67387
L79620 67106
L79620 66881
L79564 66600
L79507 66431
L79451 66318
L79339 66150
L79282 66093
" />
</g> 
</svg>
