M48
;DRILL file {KiCad 4.0.5} date 02/14/17 11:50:06
;FORMAT={-:-/ absolute / metric / decimal}
FMAT,2
METRIC,TZ
T1C0.500
T2C0.800
T3C1.000
T4C1.800
T5C2.000
T6C3.200
T7C3.000
%
G90
G05
M71
T1
X1.2Y98.8
X1.25Y65.75
X1.25Y57.5
X1.25Y55.
X1.25Y52.5
X1.25Y50.
X1.25Y47.5
X1.25Y44.75
X1.25Y42.25
X1.25Y34.25
X1.3Y1.3
X1.75Y14.
X1.75Y8.75
X2.5Y92.
X3.Y71.5
X3.Y28.5
X6.2Y79.
X6.7Y13.4
X6.898Y20.46
X8.25Y1.25
X8.5Y97.5
X8.5Y92.75
X9.75Y50.
X9.75Y9.
X9.838Y90.972
X10.9Y12.2
X11.Y18.
X11.5Y50.
X12.1Y88.6
X13.Y32.5
X13.25Y99.
X14.5Y23.8
X14.8Y37.2
X15.25Y91.75
X15.5Y21.
X15.5Y14.5
X15.693Y85.695
X16.206Y17.435
X16.211Y18.799
X16.25Y50.
X16.4Y88.1
X16.539Y12.18
X16.75Y83.5
X16.75Y80.
X16.955Y78.494
X17.Y61.25
X17.Y58.3
X17.Y54.6
X17.Y45.2
X17.Y41.7
X17.Y38.75
X17.Y24.
X17.044Y75.72
X17.4Y85.4
X17.75Y99.
X18.Y15.25
X18.198Y21.516
X18.25Y1.25
X18.5Y51.75
X18.5Y50.
X18.5Y48.
X19.097Y83.511
X19.5Y74.
X19.5Y21.4
X19.6Y71.7
X19.8Y80.1
X19.862Y27.318
X20.5Y76.
X20.5Y15.25
X20.75Y68.75
X20.75Y25.75
X21.Y23.75
X21.Y22.5
X21.1Y87.7
X21.5Y19.75
X21.637Y7.312
X21.747Y25.744
X21.75Y76.5
X21.75Y75.25
X21.75Y71.
X21.75Y32.25
X21.75Y24.75
X21.76Y82.421
X22.022Y18.255
X22.042Y69.82
X22.224Y85.763
X22.925Y74.317
X23.Y97.5
X23.75Y34.25
X24.5Y95.
X25.Y84.5
X25.Y40.5
X25.Y37.
X26.Y69.75
X26.Y18.25
X26.25Y1.25
X26.6Y68.3
X26.87Y73.89
X27.Y75.25
X27.Y15.25
X27.191Y58.262
X27.236Y78.503
X27.25Y88.
X27.25Y81.75
X27.3Y64.9
X27.3Y61.
X27.5Y25.25
X27.5Y21.6
X28.58Y56.123
X30.Y45.25
X30.5Y11.
X31.25Y41.25
X31.5Y58.5
X33.Y63.75
X33.Y54.5
X33.Y45.25
X33.25Y36.25
X33.5Y88.75
X33.5Y78.5
X33.5Y77.5
X33.5Y76.5
X33.5Y75.5
X33.5Y74.5
X33.5Y73.5
X33.5Y72.5
X33.5Y71.5
X33.5Y28.5
X33.5Y27.5
X33.5Y26.5
X33.5Y25.5
X33.5Y24.5
X33.5Y23.5
X33.5Y22.5
X33.5Y21.5
X34.25Y45.75
X34.5Y10.75
X35.Y80.5
X35.Y69.5
X35.Y30.
X35.Y19.25
X35.25Y53.5
X35.75Y89.
X36.Y97.75
X36.5Y78.5
X36.5Y77.5
X36.5Y76.5
X36.5Y75.5
X36.5Y74.5
X36.5Y73.5
X36.5Y72.5
X36.5Y71.5
X36.5Y59.75
X36.5Y50.75
X36.5Y49.5
X36.5Y40.
X36.5Y28.5
X36.5Y27.5
X36.5Y26.5
X36.5Y25.5
X36.5Y24.5
X36.5Y23.5
X36.5Y22.5
X36.5Y21.5
X36.75Y1.25
X37.5Y58.75
X37.75Y79.75
X37.75Y70.25
X37.75Y50.75
X37.75Y49.5
X37.75Y41.25
X37.75Y29.75
X37.75Y20.25
X38.75Y90.75
X39.25Y8.
X39.5Y74.
X39.5Y26.
X39.5Y24.
X39.75Y76.25
X40.75Y56.5
X41.Y43.25
X41.25Y1.25
X41.5Y98.75
X41.5Y90.25
X42.25Y62.75
X42.25Y56.5
X42.25Y54.75
X42.5Y44.75
X42.5Y43.25
X42.5Y36.75
X43.Y10.
X45.2Y75.9
X45.2Y23.9
X47.25Y90.25
X48.Y62.75
X48.5Y10.5
X49.Y36.75
X50.9Y44.7
X51.2Y55.5
X51.5Y1.25
X52.Y98.75
X54.25Y44.75
X54.3Y23.9
X54.4Y75.9
X54.5Y55.5
X57.7Y55.5
X57.7Y44.75
X57.75Y95.5
X57.75Y4.75
X61.Y55.5
X61.Y44.75
X62.4Y75.9
X62.5Y23.9
X63.5Y1.25
X63.75Y98.75
X64.3Y55.6
X64.6Y44.8
X69.2Y10.7
X69.5Y89.1
X71.Y24.
X71.1Y80.5
X71.1Y76.
X71.1Y20.
X71.7Y45.5
X71.8Y54.8
X73.Y82.75
X73.Y73.75
X73.Y26.25
X73.Y17.5
X73.5Y1.25
X74.25Y98.75
X76.75Y43.5
X78.Y58.
X78.2Y94.1
X78.25Y41.5
X79.25Y1.25
X79.3Y5.9
X79.5Y98.75
X85.75Y43.5
X87.Y57.
X87.Y42.
X89.5Y40.
X90.Y60.
X90.25Y97.5
X90.75Y2.5
X96.565Y46.261
X96.565Y38.061
X96.646Y30.251
X96.731Y69.738
X96.731Y62.214
X96.749Y78.509
X96.766Y12.938
X96.807Y20.87
X96.872Y86.719
X98.Y25.5
X98.25Y74.5
X98.25Y8.
X98.8Y98.8
X98.8Y1.3
T2
X3.5Y83.25
X3.5Y80.75
X3.5Y19.25
X3.5Y16.75
X7.Y76.
X7.Y24.
X7.75Y70.5
X7.75Y29.5
X10.25Y70.5
X10.25Y29.5
X10.5Y84.5
X10.5Y79.5
X11.Y20.5
X11.Y15.5
X11.5Y64.5
X11.5Y35.5
X12.Y76.
X12.Y24.
X14.75Y70.
X14.75Y30.
X16.5Y64.5
X16.5Y35.5
X17.25Y70.
X17.25Y30.
X20.Y65.5
X20.Y60.5
X20.Y56.75
X20.Y54.25
X20.Y45.75
X20.Y43.25
X20.Y39.5
X20.Y34.5
X47.Y79.
X47.Y73.
X47.Y27.
X47.Y21.
X52.Y79.
X52.Y73.
X52.Y27.
X52.Y21.
X54.88Y83.97
X55.Y68.
X55.Y32.
X55.Y16.
X56.Y78.5
X56.Y73.5
X56.Y26.5
X56.Y21.5
X59.88Y83.97
X60.Y68.
X60.Y32.
X60.Y16.
X61.Y78.5
X61.Y73.5
X61.Y26.5
X61.Y21.5
X64.Y78.5
X64.Y73.5
X64.Y26.5
X64.Y21.5
X69.Y78.5
X69.Y73.5
X69.Y26.5
X69.Y21.5
X82.Y94.
X82.Y89.
X82.Y85.5
X82.Y80.5
X82.Y77.
X82.Y72.
X82.Y68.5
X82.Y63.5
X82.Y36.5
X82.Y31.5
X82.Y28.
X82.Y23.
X82.Y19.5
X82.Y14.5
X82.Y11.
X82.Y6.
X86.5Y94.
X86.5Y89.
X86.5Y85.5
X86.5Y80.5
X86.5Y77.
X86.5Y72.
X86.5Y68.5
X86.5Y63.5
X86.5Y36.5
X86.5Y31.5
X86.5Y28.
X86.5Y23.
X86.5Y19.5
X86.5Y14.5
X86.5Y11.
X86.5Y6.
T3
X2.Y90.
X2.Y87.46
X3.48Y61.43
X3.48Y58.89
X3.48Y56.35
X3.48Y53.81
X3.48Y51.27
X3.48Y48.73
X3.48Y46.19
X3.48Y43.65
X3.48Y41.11
X3.48Y38.57
X5.5Y90.
X5.5Y87.46
X6.02Y61.43
X6.02Y58.89
X6.02Y56.35
X6.02Y53.81
X6.02Y51.27
X6.02Y48.73
X6.02Y46.19
X6.02Y43.65
X6.02Y41.11
X6.02Y38.57
X21.Y50.
X22.86Y13.
X22.86Y10.2
X23.54Y50.
X24.6Y65.74
X24.6Y63.2
X24.6Y60.54
X24.6Y58.
X25.4Y13.
X25.4Y10.2
X30.Y83.
X30.Y67.
X30.Y32.
X30.Y16.
X35.Y83.
X35.Y67.
X35.Y32.
X35.Y16.
X82.Y54.
X82.Y49.
T4
X94.Y86.77
X94.Y79.23
X94.Y69.77
X94.Y62.23
X94.Y53.77
X94.Y46.23
X94.Y37.77
X94.Y30.23
X94.Y20.77
X94.Y13.23
T5
X46.5Y96.35
X46.5Y85.65
X46.5Y66.35
X46.5Y55.65
X46.5Y44.35
X46.5Y33.65
X46.5Y14.35
X46.5Y3.65
X68.5Y96.35
X68.5Y85.65
X68.5Y66.35
X68.5Y55.65
X68.5Y44.35
X68.5Y33.65
X68.5Y14.35
X68.5Y3.65
T6
X30.Y95.
X30.Y50.
X30.Y5.
T7
X5.Y95.
X5.Y5.
X95.Y95.
X95.Y5.
T0
M30
