G04 #@! TF.FileFunction,Soldermask,Top*
%FSLAX46Y46*%
G04 Gerber Fmt 4.6, Leading zero omitted, Abs format (unit mm)*
G04 Created by KiCad (PCBNEW 4.0.5) date 02/14/17 11:50:05*
%MOMM*%
%LPD*%
G01*
G04 APERTURE LIST*
%ADD10C,0.150000*%
%ADD11C,0.100000*%
%ADD12R,1.300000X0.900000*%
%ADD13R,0.900000X1.300000*%
%ADD14C,1.700000*%
%ADD15C,2.200000*%
%ADD16C,3.000000*%
%ADD17C,1.600000*%
%ADD18R,1.700000X1.100000*%
%ADD19R,1.100000X1.700000*%
%ADD20C,6.200000*%
%ADD21R,2.100000X2.600000*%
%ADD22C,2.000000*%
%ADD23R,1.000000X1.000000*%
%ADD24R,1.000000X3.200000*%
%ADD25C,6.500000*%
G04 APERTURE END LIST*
D10*
D11*
X0Y100000000D02*
X100000000Y100000000D01*
X15000000Y0D02*
X0Y0D01*
X100000000Y0D02*
X15000000Y0D01*
X100000000Y100000000D02*
X100000000Y0D01*
X0Y0D02*
X0Y100000000D01*
D12*
X30000000Y58350000D03*
X30000000Y56150000D03*
X14500000Y16900000D03*
X14500000Y19100000D03*
X14500000Y22900000D03*
X14500000Y25100000D03*
D13*
X25100000Y73250000D03*
X22900000Y73250000D03*
X25100000Y32000000D03*
X22900000Y32000000D03*
X25100000Y22750000D03*
X22900000Y22750000D03*
X25100000Y20500000D03*
X22900000Y20500000D03*
D12*
X19500000Y22900000D03*
X19500000Y25100000D03*
X17000000Y22900000D03*
X17000000Y25100000D03*
D13*
X16600000Y21000000D03*
X14400000Y21000000D03*
D12*
X19500000Y77100000D03*
X19500000Y74900000D03*
D13*
X16600000Y14500000D03*
X14400000Y14500000D03*
D12*
X25000000Y43600000D03*
X25000000Y41400000D03*
D13*
X25100000Y75750000D03*
X22900000Y75750000D03*
X80600000Y43500000D03*
X78400000Y43500000D03*
D12*
X87500000Y45600000D03*
X87500000Y43400000D03*
X27200000Y57100000D03*
X27200000Y54900000D03*
D14*
X3500000Y16750000D03*
X3500000Y19250000D03*
D15*
X11000000Y15500000D03*
X11000000Y20500000D03*
X12000000Y24000000D03*
X7000000Y24000000D03*
D14*
X10250000Y29500000D03*
X7750000Y29500000D03*
X17250000Y30000000D03*
X14750000Y30000000D03*
D15*
X16500000Y35500000D03*
X11500000Y35500000D03*
X20000000Y39500000D03*
X20000000Y34500000D03*
D14*
X20000000Y43250000D03*
X20000000Y45750000D03*
X20000000Y56750000D03*
X20000000Y54250000D03*
D15*
X20000000Y65500000D03*
X20000000Y60500000D03*
D13*
X17100000Y74500000D03*
X14900000Y74500000D03*
D15*
X16500000Y64500000D03*
X11500000Y64500000D03*
D13*
X17100000Y77000000D03*
X14900000Y77000000D03*
D14*
X17250000Y70000000D03*
X14750000Y70000000D03*
X10250000Y70500000D03*
X7750000Y70500000D03*
D13*
X18100000Y80000000D03*
X15900000Y80000000D03*
D15*
X12000000Y76000000D03*
X7000000Y76000000D03*
D12*
X14000000Y80900000D03*
X14000000Y83100000D03*
D15*
X10500000Y84500000D03*
X10500000Y79500000D03*
D13*
X18100000Y83500000D03*
X15900000Y83500000D03*
D14*
X3500000Y83250000D03*
X3500000Y80750000D03*
D12*
X36750000Y5100000D03*
X36750000Y2900000D03*
D13*
X34650000Y8000000D03*
X36850000Y8000000D03*
X25100000Y18250000D03*
X22900000Y18250000D03*
D15*
X47000000Y21000000D03*
X52000000Y21000000D03*
D12*
X18000000Y19100000D03*
X18000000Y16900000D03*
X20500000Y19100000D03*
X20500000Y16900000D03*
D15*
X47000000Y27000000D03*
X52000000Y27000000D03*
D13*
X22900000Y27250000D03*
X25100000Y27250000D03*
X22900000Y25000000D03*
X25100000Y25000000D03*
X22900000Y29750000D03*
X25100000Y29750000D03*
D12*
X20500000Y29400000D03*
X20500000Y31600000D03*
X33000000Y41400000D03*
X33000000Y43600000D03*
X30000000Y41400000D03*
X30000000Y43600000D03*
D13*
X22900000Y34250000D03*
X25100000Y34250000D03*
D12*
X36000000Y93900000D03*
X36000000Y96100000D03*
D13*
X33650000Y91000000D03*
X35850000Y91000000D03*
X22900000Y71000000D03*
X25100000Y71000000D03*
D12*
X20750000Y70100000D03*
X20750000Y67900000D03*
D13*
X22900000Y79750000D03*
X25100000Y79750000D03*
X22900000Y77750000D03*
X25100000Y77750000D03*
X22900000Y81750000D03*
X25100000Y81750000D03*
D12*
X20750000Y81650000D03*
X20750000Y83850000D03*
D16*
X46500000Y14350000D03*
X46500000Y3650000D03*
X68500000Y14350000D03*
X68500000Y3650000D03*
X68500000Y33650000D03*
X68500000Y44350000D03*
X46500000Y33650000D03*
X46500000Y44350000D03*
X46500000Y66350000D03*
X46500000Y55650000D03*
X68500000Y66350000D03*
X68500000Y55650000D03*
X68500000Y85650000D03*
X68500000Y96350000D03*
X46500000Y85650000D03*
X46500000Y96350000D03*
X94000000Y46230000D03*
X94000000Y53770000D03*
D17*
X6020000Y38570000D03*
X3480000Y38570000D03*
X6020000Y41110000D03*
X3480000Y41110000D03*
X6020000Y43650000D03*
X3480000Y43650000D03*
X6020000Y46190000D03*
X3480000Y46190000D03*
X6020000Y48730000D03*
X3480000Y48730000D03*
X6020000Y51270000D03*
X3480000Y51270000D03*
X6020000Y53810000D03*
X3480000Y53810000D03*
X6020000Y56350000D03*
X3480000Y56350000D03*
X6020000Y58890000D03*
X3480000Y58890000D03*
X6020000Y61430000D03*
X3480000Y61430000D03*
D16*
X94000000Y13230000D03*
X94000000Y20770000D03*
X94000000Y30230000D03*
X94000000Y37770000D03*
D17*
X21000000Y50000000D03*
X23540000Y50000000D03*
D16*
X94000000Y62230000D03*
X94000000Y69770000D03*
X94000000Y79230000D03*
X94000000Y86770000D03*
D18*
X1500000Y22300000D03*
X1500000Y25700000D03*
D19*
X4700000Y28500000D03*
X1300000Y28500000D03*
X4700000Y31500000D03*
X1300000Y31500000D03*
D18*
X4500000Y22300000D03*
X4500000Y25700000D03*
X11500000Y38800000D03*
X11500000Y42200000D03*
X11500000Y44800000D03*
X11500000Y48200000D03*
X15000000Y42200000D03*
X15000000Y38800000D03*
X15000000Y48200000D03*
X15000000Y44800000D03*
X15000000Y51800000D03*
X15000000Y55200000D03*
X15000000Y57800000D03*
X15000000Y61200000D03*
X11500000Y55200000D03*
X11500000Y51800000D03*
X11500000Y61200000D03*
X11500000Y57800000D03*
X4500000Y77500000D03*
X4500000Y74100000D03*
D19*
X4700000Y68500000D03*
X1300000Y68500000D03*
X4700000Y71500000D03*
X1300000Y71500000D03*
D18*
X1500000Y77500000D03*
X1500000Y74100000D03*
D20*
X5000000Y5000000D03*
X95000000Y5000000D03*
X95000000Y95000000D03*
X5000000Y95000000D03*
D21*
X77950000Y20000000D03*
X73050000Y20000000D03*
X44450000Y21000000D03*
X39550000Y21000000D03*
X82050000Y2500000D03*
X86950000Y2500000D03*
X44450000Y28500000D03*
X39550000Y28500000D03*
X82050000Y40000000D03*
X86950000Y40000000D03*
X77950000Y24000000D03*
X73050000Y24000000D03*
X77950000Y76000000D03*
X73050000Y76000000D03*
X44450000Y71750000D03*
X39550000Y71750000D03*
X82050000Y60000000D03*
X86950000Y60000000D03*
X44450000Y79000000D03*
X39550000Y79000000D03*
X82050000Y97500000D03*
X86950000Y97500000D03*
X77950000Y80500000D03*
X73050000Y80500000D03*
D15*
X47000000Y73000000D03*
X52000000Y73000000D03*
X47000000Y79000000D03*
X52000000Y79000000D03*
D12*
X33000000Y58350000D03*
X33000000Y56150000D03*
D22*
X30000000Y67000000D03*
X35000000Y67000000D03*
X30000000Y83000000D03*
X35000000Y83000000D03*
X30000000Y32000000D03*
X35000000Y32000000D03*
X30000000Y16000000D03*
X35000000Y16000000D03*
X82000000Y14500000D03*
X82000000Y19500000D03*
X86500000Y14500000D03*
X86500000Y19500000D03*
X55000000Y16000000D03*
X60000000Y16000000D03*
X56000000Y21500000D03*
X61000000Y21500000D03*
X86500000Y6000000D03*
X86500000Y11000000D03*
X82000000Y11000000D03*
X82000000Y6000000D03*
X82000000Y31500000D03*
X82000000Y36500000D03*
X60000000Y32000000D03*
X55000000Y32000000D03*
X61000000Y26500000D03*
X56000000Y26500000D03*
X86500000Y31500000D03*
X86500000Y36500000D03*
X86500000Y23000000D03*
X86500000Y28000000D03*
X82000000Y28000000D03*
X82000000Y23000000D03*
X82000000Y72000000D03*
X82000000Y77000000D03*
X86500000Y72000000D03*
X86500000Y77000000D03*
X55000000Y68000000D03*
X60000000Y68000000D03*
X56000000Y73500000D03*
X61000000Y73500000D03*
X86500000Y63500000D03*
X86500000Y68500000D03*
X82000000Y68500000D03*
X82000000Y63500000D03*
X82000000Y89000000D03*
X82000000Y94000000D03*
X64000000Y78500000D03*
X69000000Y78500000D03*
X59879668Y83970438D03*
X54879668Y83970438D03*
X86500000Y89000000D03*
X86500000Y94000000D03*
X86500000Y80500000D03*
X86500000Y85500000D03*
X82000000Y85500000D03*
X82000000Y80500000D03*
X69000000Y21500000D03*
X64000000Y21500000D03*
X64000000Y26500000D03*
X69000000Y26500000D03*
X69000000Y73500000D03*
X64000000Y73500000D03*
X61000000Y78500000D03*
X56000000Y78500000D03*
D13*
X18900000Y97500000D03*
X21100000Y97500000D03*
X12100000Y97500000D03*
X9900000Y97500000D03*
X12100000Y95000000D03*
X9900000Y95000000D03*
D23*
X18800000Y95000000D03*
X22200000Y95000000D03*
D17*
X5500000Y87460000D03*
X5500000Y90000000D03*
X2000000Y87460000D03*
X2000000Y90000000D03*
D24*
X18900000Y90500000D03*
X25100000Y90500000D03*
D13*
X16600000Y95000000D03*
X14400000Y95000000D03*
X10800000Y88000000D03*
X8600000Y88000000D03*
X16600000Y97500000D03*
X14400000Y97500000D03*
X10800000Y91000000D03*
X8600000Y91000000D03*
X25100000Y68750000D03*
X22900000Y68750000D03*
D22*
X82000000Y49000000D03*
X82000000Y54000000D03*
D25*
X30000000Y50000000D03*
X30000000Y5000000D03*
X30000000Y95000000D03*
D17*
X22860000Y13000000D03*
X25400000Y13000000D03*
X22860000Y10200000D03*
X25400000Y10200000D03*
X24600000Y63200000D03*
X24600000Y65740000D03*
X24600000Y58000000D03*
X24600000Y60540000D03*
M02*
