G04 #@! TF.FileFunction,Legend,Bot*
%FSLAX46Y46*%
G04 Gerber Fmt 4.6, Leading zero omitted, Abs format (unit mm)*
G04 Created by KiCad (PCBNEW 4.0.5) date 02/14/17 11:50:05*
%MOMM*%
%LPD*%
G01*
G04 APERTURE LIST*
%ADD10C,0.150000*%
%ADD11C,0.200000*%
%ADD12C,0.300000*%
%ADD13C,0.100000*%
%ADD14C,0.250000*%
G04 APERTURE END LIST*
D10*
D11*
X22000000Y95947619D02*
X22000000Y96947619D01*
X21666666Y96233333D01*
X21333333Y96947619D01*
X21333333Y95947619D01*
X20857143Y96947619D02*
X20857143Y96138095D01*
X20809524Y96042857D01*
X20761905Y95995238D01*
X20666667Y95947619D01*
X20476190Y95947619D01*
X20380952Y95995238D01*
X20333333Y96042857D01*
X20285714Y96138095D01*
X20285714Y96947619D01*
X19952381Y96947619D02*
X19380952Y96947619D01*
X19666667Y95947619D02*
X19666667Y96947619D01*
X19047619Y96471429D02*
X18714285Y96471429D01*
X18571428Y95947619D02*
X19047619Y95947619D01*
X19047619Y96947619D01*
X18571428Y96947619D01*
X17428571Y96995238D02*
X18285714Y95709524D01*
X17142857Y95995238D02*
X17000000Y95947619D01*
X16761904Y95947619D01*
X16666666Y95995238D01*
X16619047Y96042857D01*
X16571428Y96138095D01*
X16571428Y96233333D01*
X16619047Y96328571D01*
X16666666Y96376190D01*
X16761904Y96423810D01*
X16952381Y96471429D01*
X17047619Y96519048D01*
X17095238Y96566667D01*
X17142857Y96661905D01*
X17142857Y96757143D01*
X17095238Y96852381D01*
X17047619Y96900000D01*
X16952381Y96947619D01*
X16714285Y96947619D01*
X16571428Y96900000D01*
X16285714Y96947619D02*
X15714285Y96947619D01*
X16000000Y95947619D02*
X16000000Y96947619D01*
X15047618Y96471429D02*
X14904761Y96423810D01*
X14857142Y96376190D01*
X14809523Y96280952D01*
X14809523Y96138095D01*
X14857142Y96042857D01*
X14904761Y95995238D01*
X14999999Y95947619D01*
X15380952Y95947619D01*
X15380952Y96947619D01*
X15047618Y96947619D01*
X14952380Y96900000D01*
X14904761Y96852381D01*
X14857142Y96757143D01*
X14857142Y96661905D01*
X14904761Y96566667D01*
X14952380Y96519048D01*
X15047618Y96471429D01*
X15380952Y96471429D01*
X14190476Y96423810D02*
X14190476Y95947619D01*
X14523809Y96947619D02*
X14190476Y96423810D01*
X13857142Y96947619D01*
X22738095Y95247619D02*
X22547618Y95247619D01*
X22452380Y95200000D01*
X22357142Y95104762D01*
X22309523Y94914286D01*
X22309523Y94580952D01*
X22357142Y94390476D01*
X22452380Y94295238D01*
X22547618Y94247619D01*
X22738095Y94247619D01*
X22833333Y94295238D01*
X22928571Y94390476D01*
X22976190Y94580952D01*
X22976190Y94914286D01*
X22928571Y95104762D01*
X22833333Y95200000D01*
X22738095Y95247619D01*
X21880952Y94247619D02*
X21880952Y95247619D01*
X21499999Y95247619D01*
X21404761Y95200000D01*
X21357142Y95152381D01*
X21309523Y95057143D01*
X21309523Y94914286D01*
X21357142Y94819048D01*
X21404761Y94771429D01*
X21499999Y94723810D01*
X21880952Y94723810D01*
X20880952Y94771429D02*
X20547618Y94771429D01*
X20404761Y94247619D02*
X20880952Y94247619D01*
X20880952Y95247619D01*
X20404761Y95247619D01*
X19976190Y94247619D02*
X19976190Y95247619D01*
X19404761Y94247619D01*
X19404761Y95247619D01*
X18166666Y94771429D02*
X17404761Y94771429D01*
X17404761Y94485714D02*
X18166666Y94485714D01*
X16166666Y94247619D02*
X16166666Y95247619D01*
X16166666Y94771429D02*
X15595237Y94771429D01*
X15595237Y94247619D02*
X15595237Y95247619D01*
X15119047Y94247619D02*
X15119047Y95247619D01*
X14119047Y95200000D02*
X14214285Y95247619D01*
X14357142Y95247619D01*
X14500000Y95200000D01*
X14595238Y95104762D01*
X14642857Y95009524D01*
X14690476Y94819048D01*
X14690476Y94676190D01*
X14642857Y94485714D01*
X14595238Y94390476D01*
X14500000Y94295238D01*
X14357142Y94247619D01*
X14261904Y94247619D01*
X14119047Y94295238D01*
X14071428Y94342857D01*
X14071428Y94676190D01*
X14261904Y94676190D01*
X13642857Y94247619D02*
X13642857Y95247619D01*
X13642857Y94771429D02*
X13071428Y94771429D01*
X13071428Y94247619D02*
X13071428Y95247619D01*
X26333334Y92595238D02*
X26190477Y92547619D01*
X25952381Y92547619D01*
X25857143Y92595238D01*
X25809524Y92642857D01*
X25761905Y92738095D01*
X25761905Y92833333D01*
X25809524Y92928571D01*
X25857143Y92976190D01*
X25952381Y93023810D01*
X26142858Y93071429D01*
X26238096Y93119048D01*
X26285715Y93166667D01*
X26333334Y93261905D01*
X26333334Y93357143D01*
X26285715Y93452381D01*
X26238096Y93500000D01*
X26142858Y93547619D01*
X25904762Y93547619D01*
X25761905Y93500000D01*
X25333334Y92547619D02*
X25333334Y93547619D01*
X25333334Y93071429D02*
X24761905Y93071429D01*
X24761905Y92547619D02*
X24761905Y93547619D01*
X24095239Y93547619D02*
X23904762Y93547619D01*
X23809524Y93500000D01*
X23714286Y93404762D01*
X23666667Y93214286D01*
X23666667Y92880952D01*
X23714286Y92690476D01*
X23809524Y92595238D01*
X23904762Y92547619D01*
X24095239Y92547619D01*
X24190477Y92595238D01*
X24285715Y92690476D01*
X24333334Y92880952D01*
X24333334Y93214286D01*
X24285715Y93404762D01*
X24190477Y93500000D01*
X24095239Y93547619D01*
X22666667Y92547619D02*
X23000001Y93023810D01*
X23238096Y92547619D02*
X23238096Y93547619D01*
X22857143Y93547619D01*
X22761905Y93500000D01*
X22714286Y93452381D01*
X22666667Y93357143D01*
X22666667Y93214286D01*
X22714286Y93119048D01*
X22761905Y93071429D01*
X22857143Y93023810D01*
X23238096Y93023810D01*
X22380953Y93547619D02*
X21809524Y93547619D01*
X22095239Y92547619D02*
X22095239Y93547619D01*
X20714286Y93071429D02*
X19952381Y93071429D01*
X19952381Y92785714D02*
X20714286Y92785714D01*
X18238095Y92547619D02*
X18714286Y92547619D01*
X18714286Y93547619D01*
X17714286Y93547619D02*
X17523809Y93547619D01*
X17428571Y93500000D01*
X17333333Y93404762D01*
X17285714Y93214286D01*
X17285714Y92880952D01*
X17333333Y92690476D01*
X17428571Y92595238D01*
X17523809Y92547619D01*
X17714286Y92547619D01*
X17809524Y92595238D01*
X17904762Y92690476D01*
X17952381Y92880952D01*
X17952381Y93214286D01*
X17904762Y93404762D01*
X17809524Y93500000D01*
X17714286Y93547619D01*
X16952381Y93547619D02*
X16714286Y92547619D01*
X16523809Y93261905D01*
X16333333Y92547619D01*
X16095238Y93547619D01*
X14666666Y92166667D02*
X14714286Y92214286D01*
X14809524Y92357143D01*
X14857143Y92452381D01*
X14904762Y92595238D01*
X14952381Y92833333D01*
X14952381Y93023810D01*
X14904762Y93261905D01*
X14857143Y93404762D01*
X14809524Y93500000D01*
X14714286Y93642857D01*
X14666666Y93690476D01*
X14333333Y92833333D02*
X13857142Y92833333D01*
X14428571Y92547619D02*
X14095238Y93547619D01*
X13761904Y92547619D01*
X12999999Y92595238D02*
X13095237Y92547619D01*
X13285714Y92547619D01*
X13380952Y92595238D01*
X13428571Y92642857D01*
X13476190Y92738095D01*
X13476190Y93023810D01*
X13428571Y93119048D01*
X13380952Y93166667D01*
X13285714Y93214286D01*
X13095237Y93214286D01*
X12999999Y93166667D01*
X12714285Y93214286D02*
X12333333Y93214286D01*
X12571428Y93547619D02*
X12571428Y92690476D01*
X12523809Y92595238D01*
X12428571Y92547619D01*
X12333333Y92547619D01*
X11999999Y92547619D02*
X11999999Y93214286D01*
X11999999Y93547619D02*
X12047618Y93500000D01*
X11999999Y93452381D01*
X11952380Y93500000D01*
X11999999Y93547619D01*
X11999999Y93452381D01*
X11619047Y93214286D02*
X11380952Y92547619D01*
X11142856Y93214286D01*
X10380951Y92595238D02*
X10476189Y92547619D01*
X10666666Y92547619D01*
X10761904Y92595238D01*
X10809523Y92690476D01*
X10809523Y93071429D01*
X10761904Y93166667D01*
X10666666Y93214286D01*
X10476189Y93214286D01*
X10380951Y93166667D01*
X10333332Y93071429D01*
X10333332Y92976190D01*
X10809523Y92880952D01*
X9999999Y92166667D02*
X9952380Y92214286D01*
X9857142Y92357143D01*
X9809523Y92452381D01*
X9761904Y92595238D01*
X9714285Y92833333D01*
X9714285Y93023810D01*
X9761904Y93261905D01*
X9809523Y93404762D01*
X9857142Y93500000D01*
X9952380Y93642857D01*
X9999999Y93690476D01*
D12*
X89103571Y52364286D02*
X87603571Y52364286D01*
X88103571Y51650000D02*
X89103571Y51650000D01*
X88246429Y51650000D02*
X88175000Y51578572D01*
X88103571Y51435714D01*
X88103571Y51221429D01*
X88175000Y51078572D01*
X88317857Y51007143D01*
X89103571Y51007143D01*
X88103571Y50292857D02*
X89603571Y50292857D01*
X88175000Y50292857D02*
X88103571Y50150000D01*
X88103571Y49864286D01*
X88175000Y49721429D01*
X88246429Y49650000D01*
X88389286Y49578571D01*
X88817857Y49578571D01*
X88960714Y49650000D01*
X89032143Y49721429D01*
X89103571Y49864286D01*
X89103571Y50150000D01*
X89032143Y50292857D01*
X88103571Y48292857D02*
X89103571Y48292857D01*
X88103571Y48935714D02*
X88889286Y48935714D01*
X89032143Y48864286D01*
X89103571Y48721428D01*
X89103571Y48507143D01*
X89032143Y48364286D01*
X88960714Y48292857D01*
X88103571Y47792857D02*
X88103571Y47221428D01*
X87603571Y47578571D02*
X88889286Y47578571D01*
X89032143Y47507143D01*
X89103571Y47364285D01*
X89103571Y47221428D01*
X91653571Y56685713D02*
X91653571Y57542856D01*
X91653571Y57114284D02*
X90153571Y57114284D01*
X90367857Y57257141D01*
X90510714Y57399999D01*
X90582143Y57542856D01*
X90296429Y56114285D02*
X90225000Y56042856D01*
X90153571Y55899999D01*
X90153571Y55542856D01*
X90225000Y55399999D01*
X90296429Y55328570D01*
X90439286Y55257142D01*
X90582143Y55257142D01*
X90796429Y55328570D01*
X91653571Y56185713D01*
X91653571Y55257142D01*
X90153571Y54828571D02*
X91653571Y54328571D01*
X90153571Y53828571D01*
X91082143Y53328571D02*
X91082143Y52185714D01*
X90153571Y51614285D02*
X90153571Y50685714D01*
X90725000Y51185714D01*
X90725000Y50971428D01*
X90796429Y50828571D01*
X90867857Y50757142D01*
X91010714Y50685714D01*
X91367857Y50685714D01*
X91510714Y50757142D01*
X91582143Y50828571D01*
X91653571Y50971428D01*
X91653571Y51400000D01*
X91582143Y51542857D01*
X91510714Y51614285D01*
X90153571Y49400000D02*
X90153571Y49685714D01*
X90225000Y49828571D01*
X90296429Y49900000D01*
X90510714Y50042857D01*
X90796429Y50114286D01*
X91367857Y50114286D01*
X91510714Y50042857D01*
X91582143Y49971429D01*
X91653571Y49828571D01*
X91653571Y49542857D01*
X91582143Y49400000D01*
X91510714Y49328571D01*
X91367857Y49257143D01*
X91010714Y49257143D01*
X90867857Y49328571D01*
X90796429Y49400000D01*
X90725000Y49542857D01*
X90725000Y49828571D01*
X90796429Y49971429D01*
X90867857Y50042857D01*
X91010714Y50114286D01*
X90153571Y48828572D02*
X91653571Y48328572D01*
X90153571Y47828572D01*
X91653571Y46185715D02*
X90653571Y46185715D01*
X90796429Y46185715D02*
X90725000Y46114287D01*
X90653571Y45971429D01*
X90653571Y45757144D01*
X90725000Y45614287D01*
X90867857Y45542858D01*
X91653571Y45542858D01*
X90867857Y45542858D02*
X90725000Y45471429D01*
X90653571Y45328572D01*
X90653571Y45114287D01*
X90725000Y44971429D01*
X90867857Y44900001D01*
X91653571Y44900001D01*
X91653571Y43542858D02*
X90867857Y43542858D01*
X90725000Y43614287D01*
X90653571Y43757144D01*
X90653571Y44042858D01*
X90725000Y44185715D01*
X91582143Y43542858D02*
X91653571Y43685715D01*
X91653571Y44042858D01*
X91582143Y44185715D01*
X91439286Y44257144D01*
X91296429Y44257144D01*
X91153571Y44185715D01*
X91082143Y44042858D01*
X91082143Y43685715D01*
X91010714Y43542858D01*
X91653571Y42971429D02*
X90653571Y42185715D01*
X90653571Y42971429D02*
X91653571Y42185715D01*
D11*
X3400000Y36150274D02*
X3400000Y36750274D01*
X8000000Y36150274D02*
X3400000Y36150274D01*
X8000000Y38450274D02*
X8000000Y36150274D01*
X3400000Y63800000D02*
X3400000Y63200000D01*
X8000000Y63800000D02*
X3400000Y63800000D01*
X8000000Y61500000D02*
X8000000Y63800000D01*
X7300000Y38400000D02*
X7900000Y38400000D01*
X7400000Y41100000D02*
X8000000Y41100000D01*
X7400000Y43600000D02*
X8000000Y43600000D01*
X7300000Y46200000D02*
X7900000Y46200000D01*
X7200000Y53800000D02*
X7800000Y53800000D01*
X7200000Y56300000D02*
X7800000Y56300000D01*
X7300000Y58900000D02*
X7900000Y58900000D01*
X8000000Y38400000D02*
X8000000Y47400000D01*
X7400000Y61500000D02*
X8000000Y61500000D01*
X8000000Y52500000D02*
X8000000Y61500000D01*
D12*
X8750000Y48807143D02*
X8821429Y48664286D01*
X8821429Y48450000D01*
X8750000Y48235715D01*
X8607143Y48092857D01*
X8464286Y48021429D01*
X8178571Y47950000D01*
X7964286Y47950000D01*
X7678571Y48021429D01*
X7535714Y48092857D01*
X7392857Y48235715D01*
X7321429Y48450000D01*
X7321429Y48592857D01*
X7392857Y48807143D01*
X7464286Y48878572D01*
X7964286Y48878572D01*
X7964286Y48592857D01*
X7321429Y49521429D02*
X8821429Y49521429D01*
X7321429Y50378572D01*
X8821429Y50378572D01*
X7321429Y51092858D02*
X8821429Y51092858D01*
X8821429Y51450001D01*
X8750000Y51664286D01*
X8607143Y51807144D01*
X8464286Y51878572D01*
X8178571Y51950001D01*
X7964286Y51950001D01*
X7678571Y51878572D01*
X7535714Y51807144D01*
X7392857Y51664286D01*
X7321429Y51450001D01*
X7321429Y51092858D01*
X1971428Y56292857D02*
X828571Y56292857D01*
X1400000Y55721429D02*
X1400000Y56864286D01*
X1407143Y59371428D02*
X1407143Y58228571D01*
X1971428Y51292857D02*
X828571Y51292857D01*
X1400000Y50721429D02*
X1400000Y51864286D01*
X1407143Y54371428D02*
X1407143Y53228571D01*
X1971428Y46192857D02*
X828571Y46192857D01*
X1400000Y45621429D02*
X1400000Y46764286D01*
X1407143Y49271428D02*
X1407143Y48128571D01*
X1407143Y44071428D02*
X1407143Y42928571D01*
X1971428Y40992857D02*
X828571Y40992857D01*
X1400000Y40421429D02*
X1400000Y41564286D01*
X9521429Y53692857D02*
X11021429Y53692857D01*
X9521429Y54407143D02*
X11021429Y54407143D01*
X9521429Y55264286D01*
X11021429Y55264286D01*
X9521429Y55978572D02*
X11021429Y55978572D01*
X11021429Y56550000D01*
X10950000Y56692858D01*
X10878571Y56764286D01*
X10735714Y56835715D01*
X10521429Y56835715D01*
X10378571Y56764286D01*
X10307143Y56692858D01*
X10235714Y56550000D01*
X10235714Y55978572D01*
X11021429Y57478572D02*
X9807143Y57478572D01*
X9664286Y57550000D01*
X9592857Y57621429D01*
X9521429Y57764286D01*
X9521429Y58050000D01*
X9592857Y58192858D01*
X9664286Y58264286D01*
X9807143Y58335715D01*
X11021429Y58335715D01*
X11021429Y58835715D02*
X11021429Y59692858D01*
X9521429Y59264287D02*
X11021429Y59264287D01*
X9592857Y60121429D02*
X9521429Y60335715D01*
X9521429Y60692858D01*
X9592857Y60835715D01*
X9664286Y60907144D01*
X9807143Y60978572D01*
X9950000Y60978572D01*
X10092857Y60907144D01*
X10164286Y60835715D01*
X10235714Y60692858D01*
X10307143Y60407144D01*
X10378571Y60264286D01*
X10450000Y60192858D01*
X10592857Y60121429D01*
X10735714Y60121429D01*
X10878571Y60192858D01*
X10950000Y60264286D01*
X11021429Y60407144D01*
X11021429Y60764286D01*
X10950000Y60978572D01*
X95907143Y40471428D02*
X95907143Y39328571D01*
X95707143Y28371428D02*
X95707143Y27228571D01*
X96278571Y27800000D02*
X95135714Y27800000D01*
X95492857Y10328572D02*
X95492857Y11471429D01*
X95692857Y22428572D02*
X95692857Y23571429D01*
X95121429Y23000000D02*
X96264286Y23000000D01*
X95492857Y59228572D02*
X95492857Y60371429D01*
X95692857Y71328572D02*
X95692857Y72471429D01*
X95121429Y71900000D02*
X96264286Y71900000D01*
X95907143Y89371428D02*
X95907143Y88228571D01*
X95707143Y77271428D02*
X95707143Y76128571D01*
X96278571Y76700000D02*
X95135714Y76700000D01*
X96407143Y53071428D02*
X96407143Y51928571D01*
X96307143Y48471428D02*
X96307143Y47328571D01*
X96878571Y47900000D02*
X95735714Y47900000D01*
X99178571Y53864286D02*
X97678571Y53864286D01*
X97678571Y53292858D01*
X97750000Y53150000D01*
X97821429Y53078572D01*
X97964286Y53007143D01*
X98178571Y53007143D01*
X98321429Y53078572D01*
X98392857Y53150000D01*
X98464286Y53292858D01*
X98464286Y53864286D01*
X97678571Y52078572D02*
X97678571Y51792858D01*
X97750000Y51650000D01*
X97892857Y51507143D01*
X98178571Y51435715D01*
X98678571Y51435715D01*
X98964286Y51507143D01*
X99107143Y51650000D01*
X99178571Y51792858D01*
X99178571Y52078572D01*
X99107143Y52221429D01*
X98964286Y52364286D01*
X98678571Y52435715D01*
X98178571Y52435715D01*
X97892857Y52364286D01*
X97750000Y52221429D01*
X97678571Y52078572D01*
X97678571Y50935714D02*
X99178571Y50578571D01*
X98107143Y50292857D01*
X99178571Y50007143D01*
X97678571Y49650000D01*
X98392857Y49078571D02*
X98392857Y48578571D01*
X99178571Y48364285D02*
X99178571Y49078571D01*
X97678571Y49078571D01*
X97678571Y48364285D01*
X99178571Y46864285D02*
X98464286Y47364285D01*
X99178571Y47721428D02*
X97678571Y47721428D01*
X97678571Y47150000D01*
X97750000Y47007142D01*
X97821429Y46935714D01*
X97964286Y46864285D01*
X98178571Y46864285D01*
X98321429Y46935714D01*
X98392857Y47007142D01*
X98464286Y47150000D01*
X98464286Y47721428D01*
X99107143Y70778571D02*
X99178571Y70564285D01*
X99178571Y70207142D01*
X99107143Y70064285D01*
X99035714Y69992856D01*
X98892857Y69921428D01*
X98750000Y69921428D01*
X98607143Y69992856D01*
X98535714Y70064285D01*
X98464286Y70207142D01*
X98392857Y70492856D01*
X98321429Y70635714D01*
X98250000Y70707142D01*
X98107143Y70778571D01*
X97964286Y70778571D01*
X97821429Y70707142D01*
X97750000Y70635714D01*
X97678571Y70492856D01*
X97678571Y70135714D01*
X97750000Y69921428D01*
X99178571Y69278571D02*
X97678571Y69278571D01*
X97678571Y68707143D01*
X97750000Y68564285D01*
X97821429Y68492857D01*
X97964286Y68421428D01*
X98178571Y68421428D01*
X98321429Y68492857D01*
X98392857Y68564285D01*
X98464286Y68707143D01*
X98464286Y69278571D01*
X98392857Y67778571D02*
X98392857Y67278571D01*
X99178571Y67064285D02*
X99178571Y67778571D01*
X97678571Y67778571D01*
X97678571Y67064285D01*
X98750000Y66492857D02*
X98750000Y65778571D01*
X99178571Y66635714D02*
X97678571Y66135714D01*
X99178571Y65635714D01*
X99178571Y65135714D02*
X97678571Y65135714D01*
X99178571Y64278571D02*
X98321429Y64921428D01*
X97678571Y64278571D02*
X98535714Y65135714D01*
X98392857Y63635714D02*
X98392857Y63135714D01*
X99178571Y62921428D02*
X99178571Y63635714D01*
X97678571Y63635714D01*
X97678571Y62921428D01*
X99178571Y61421428D02*
X98464286Y61921428D01*
X99178571Y62278571D02*
X97678571Y62278571D01*
X97678571Y61707143D01*
X97750000Y61564285D01*
X97821429Y61492857D01*
X97964286Y61421428D01*
X98178571Y61421428D01*
X98321429Y61492857D01*
X98392857Y61564285D01*
X98464286Y61707143D01*
X98464286Y62278571D01*
X99107143Y87078571D02*
X99178571Y86864285D01*
X99178571Y86507142D01*
X99107143Y86364285D01*
X99035714Y86292856D01*
X98892857Y86221428D01*
X98750000Y86221428D01*
X98607143Y86292856D01*
X98535714Y86364285D01*
X98464286Y86507142D01*
X98392857Y86792856D01*
X98321429Y86935714D01*
X98250000Y87007142D01*
X98107143Y87078571D01*
X97964286Y87078571D01*
X97821429Y87007142D01*
X97750000Y86935714D01*
X97678571Y86792856D01*
X97678571Y86435714D01*
X97750000Y86221428D01*
X99178571Y85578571D02*
X97678571Y85578571D01*
X97678571Y85007143D01*
X97750000Y84864285D01*
X97821429Y84792857D01*
X97964286Y84721428D01*
X98178571Y84721428D01*
X98321429Y84792857D01*
X98392857Y84864285D01*
X98464286Y85007143D01*
X98464286Y85578571D01*
X98392857Y84078571D02*
X98392857Y83578571D01*
X99178571Y83364285D02*
X99178571Y84078571D01*
X97678571Y84078571D01*
X97678571Y83364285D01*
X98750000Y82792857D02*
X98750000Y82078571D01*
X99178571Y82935714D02*
X97678571Y82435714D01*
X99178571Y81935714D01*
X99178571Y81435714D02*
X97678571Y81435714D01*
X99178571Y80578571D02*
X98321429Y81221428D01*
X97678571Y80578571D02*
X98535714Y81435714D01*
X98392857Y79935714D02*
X98392857Y79435714D01*
X99178571Y79221428D02*
X99178571Y79935714D01*
X97678571Y79935714D01*
X97678571Y79221428D01*
X99178571Y77721428D02*
X98464286Y78221428D01*
X99178571Y78578571D02*
X97678571Y78578571D01*
X97678571Y78007143D01*
X97750000Y77864285D01*
X97821429Y77792857D01*
X97964286Y77721428D01*
X98178571Y77721428D01*
X98321429Y77792857D01*
X98392857Y77864285D01*
X98464286Y78007143D01*
X98464286Y78578571D01*
X99107143Y39078571D02*
X99178571Y38864285D01*
X99178571Y38507142D01*
X99107143Y38364285D01*
X99035714Y38292856D01*
X98892857Y38221428D01*
X98750000Y38221428D01*
X98607143Y38292856D01*
X98535714Y38364285D01*
X98464286Y38507142D01*
X98392857Y38792856D01*
X98321429Y38935714D01*
X98250000Y39007142D01*
X98107143Y39078571D01*
X97964286Y39078571D01*
X97821429Y39007142D01*
X97750000Y38935714D01*
X97678571Y38792856D01*
X97678571Y38435714D01*
X97750000Y38221428D01*
X99178571Y37578571D02*
X97678571Y37578571D01*
X97678571Y37007143D01*
X97750000Y36864285D01*
X97821429Y36792857D01*
X97964286Y36721428D01*
X98178571Y36721428D01*
X98321429Y36792857D01*
X98392857Y36864285D01*
X98464286Y37007143D01*
X98464286Y37578571D01*
X98392857Y36078571D02*
X98392857Y35578571D01*
X99178571Y35364285D02*
X99178571Y36078571D01*
X97678571Y36078571D01*
X97678571Y35364285D01*
X98750000Y34792857D02*
X98750000Y34078571D01*
X99178571Y34935714D02*
X97678571Y34435714D01*
X99178571Y33935714D01*
X99178571Y33435714D02*
X97678571Y33435714D01*
X99178571Y32578571D02*
X98321429Y33221428D01*
X97678571Y32578571D02*
X98535714Y33435714D01*
X98392857Y31935714D02*
X98392857Y31435714D01*
X99178571Y31221428D02*
X99178571Y31935714D01*
X97678571Y31935714D01*
X97678571Y31221428D01*
X99178571Y29721428D02*
X98464286Y30221428D01*
X99178571Y30578571D02*
X97678571Y30578571D01*
X97678571Y30007143D01*
X97750000Y29864285D01*
X97821429Y29792857D01*
X97964286Y29721428D01*
X98178571Y29721428D01*
X98321429Y29792857D01*
X98392857Y29864285D01*
X98464286Y30007143D01*
X98464286Y30578571D01*
X99107143Y21878571D02*
X99178571Y21664285D01*
X99178571Y21307142D01*
X99107143Y21164285D01*
X99035714Y21092856D01*
X98892857Y21021428D01*
X98750000Y21021428D01*
X98607143Y21092856D01*
X98535714Y21164285D01*
X98464286Y21307142D01*
X98392857Y21592856D01*
X98321429Y21735714D01*
X98250000Y21807142D01*
X98107143Y21878571D01*
X97964286Y21878571D01*
X97821429Y21807142D01*
X97750000Y21735714D01*
X97678571Y21592856D01*
X97678571Y21235714D01*
X97750000Y21021428D01*
X99178571Y20378571D02*
X97678571Y20378571D01*
X97678571Y19807143D01*
X97750000Y19664285D01*
X97821429Y19592857D01*
X97964286Y19521428D01*
X98178571Y19521428D01*
X98321429Y19592857D01*
X98392857Y19664285D01*
X98464286Y19807143D01*
X98464286Y20378571D01*
X98392857Y18878571D02*
X98392857Y18378571D01*
X99178571Y18164285D02*
X99178571Y18878571D01*
X97678571Y18878571D01*
X97678571Y18164285D01*
X98750000Y17592857D02*
X98750000Y16878571D01*
X99178571Y17735714D02*
X97678571Y17235714D01*
X99178571Y16735714D01*
X99178571Y16235714D02*
X97678571Y16235714D01*
X99178571Y15378571D02*
X98321429Y16021428D01*
X97678571Y15378571D02*
X98535714Y16235714D01*
X98392857Y14735714D02*
X98392857Y14235714D01*
X99178571Y14021428D02*
X99178571Y14735714D01*
X97678571Y14735714D01*
X97678571Y14021428D01*
X99178571Y12521428D02*
X98464286Y13021428D01*
X99178571Y13378571D02*
X97678571Y13378571D01*
X97678571Y12807143D01*
X97750000Y12664285D01*
X97821429Y12592857D01*
X97964286Y12521428D01*
X98178571Y12521428D01*
X98321429Y12592857D01*
X98392857Y12664285D01*
X98464286Y12807143D01*
X98464286Y13378571D01*
D13*
X0Y100000000D02*
X100000000Y100000000D01*
X15000000Y0D02*
X0Y0D01*
X100000000Y0D02*
X15000000Y0D01*
D14*
X74817857Y91685714D02*
X74817857Y91457143D01*
X74875000Y91342857D01*
X74989286Y91228571D01*
X75217857Y91171429D01*
X75617857Y91171429D01*
X75846429Y91228571D01*
X75960714Y91342857D01*
X76017857Y91457143D01*
X76017857Y91685714D01*
X75960714Y91800000D01*
X75846429Y91914286D01*
X75617857Y91971429D01*
X75217857Y91971429D01*
X74989286Y91914286D01*
X74875000Y91800000D01*
X74817857Y91685714D01*
X75217857Y90657143D02*
X76417857Y90657143D01*
X75275000Y90657143D02*
X75217857Y90542857D01*
X75217857Y90314286D01*
X75275000Y90200000D01*
X75332143Y90142857D01*
X75446429Y90085714D01*
X75789286Y90085714D01*
X75903571Y90142857D01*
X75960714Y90200000D01*
X76017857Y90314286D01*
X76017857Y90542857D01*
X75960714Y90657143D01*
X75960714Y89114286D02*
X76017857Y89228572D01*
X76017857Y89457143D01*
X75960714Y89571429D01*
X75846429Y89628572D01*
X75389286Y89628572D01*
X75275000Y89571429D01*
X75217857Y89457143D01*
X75217857Y89228572D01*
X75275000Y89114286D01*
X75389286Y89057143D01*
X75503571Y89057143D01*
X75617857Y89628572D01*
X75217857Y88542858D02*
X76017857Y88542858D01*
X75332143Y88542858D02*
X75275000Y88485715D01*
X75217857Y88371429D01*
X75217857Y88200001D01*
X75275000Y88085715D01*
X75389286Y88028572D01*
X76017857Y88028572D01*
X76017857Y86542858D02*
X74817857Y86542858D01*
X75389286Y86542858D02*
X75389286Y85857143D01*
X76017857Y85857143D02*
X74817857Y85857143D01*
X76017857Y84771429D02*
X75389286Y84771429D01*
X75275000Y84828572D01*
X75217857Y84942858D01*
X75217857Y85171429D01*
X75275000Y85285715D01*
X75960714Y84771429D02*
X76017857Y84885715D01*
X76017857Y85171429D01*
X75960714Y85285715D01*
X75846429Y85342858D01*
X75732143Y85342858D01*
X75617857Y85285715D01*
X75560714Y85171429D01*
X75560714Y84885715D01*
X75503571Y84771429D01*
X76017857Y84200001D02*
X75217857Y84200001D01*
X75446429Y84200001D02*
X75332143Y84142858D01*
X75275000Y84085715D01*
X75217857Y83971429D01*
X75217857Y83857144D01*
X76017857Y82942858D02*
X74817857Y82942858D01*
X75960714Y82942858D02*
X76017857Y83057144D01*
X76017857Y83285715D01*
X75960714Y83400001D01*
X75903571Y83457144D01*
X75789286Y83514287D01*
X75446429Y83514287D01*
X75332143Y83457144D01*
X75275000Y83400001D01*
X75217857Y83285715D01*
X75217857Y83057144D01*
X75275000Y82942858D01*
X75217857Y82485715D02*
X76017857Y82257144D01*
X75446429Y82028573D01*
X76017857Y81800001D01*
X75217857Y81571430D01*
X76017857Y80600001D02*
X75389286Y80600001D01*
X75275000Y80657144D01*
X75217857Y80771430D01*
X75217857Y81000001D01*
X75275000Y81114287D01*
X75960714Y80600001D02*
X76017857Y80714287D01*
X76017857Y81000001D01*
X75960714Y81114287D01*
X75846429Y81171430D01*
X75732143Y81171430D01*
X75617857Y81114287D01*
X75560714Y81000001D01*
X75560714Y80714287D01*
X75503571Y80600001D01*
X76017857Y80028573D02*
X75217857Y80028573D01*
X75446429Y80028573D02*
X75332143Y79971430D01*
X75275000Y79914287D01*
X75217857Y79800001D01*
X75217857Y79685716D01*
X75960714Y78828573D02*
X76017857Y78942859D01*
X76017857Y79171430D01*
X75960714Y79285716D01*
X75846429Y79342859D01*
X75389286Y79342859D01*
X75275000Y79285716D01*
X75217857Y79171430D01*
X75217857Y78942859D01*
X75275000Y78828573D01*
X75389286Y78771430D01*
X75503571Y78771430D01*
X75617857Y79342859D01*
X76017857Y77342859D02*
X74817857Y77342859D01*
X74817857Y77057144D01*
X74875000Y76885716D01*
X74989286Y76771430D01*
X75103571Y76714287D01*
X75332143Y76657144D01*
X75503571Y76657144D01*
X75732143Y76714287D01*
X75846429Y76771430D01*
X75960714Y76885716D01*
X76017857Y77057144D01*
X76017857Y77342859D01*
X75960714Y76200002D02*
X76017857Y76028573D01*
X76017857Y75742859D01*
X75960714Y75628573D01*
X75903571Y75571430D01*
X75789286Y75514287D01*
X75675000Y75514287D01*
X75560714Y75571430D01*
X75503571Y75628573D01*
X75446429Y75742859D01*
X75389286Y75971430D01*
X75332143Y76085716D01*
X75275000Y76142859D01*
X75160714Y76200002D01*
X75046429Y76200002D01*
X74932143Y76142859D01*
X74875000Y76085716D01*
X74817857Y75971430D01*
X74817857Y75685716D01*
X74875000Y75514287D01*
X76017857Y75000002D02*
X74817857Y75000002D01*
X74817857Y74542859D01*
X74875000Y74428573D01*
X74932143Y74371430D01*
X75046429Y74314287D01*
X75217857Y74314287D01*
X75332143Y74371430D01*
X75389286Y74428573D01*
X75446429Y74542859D01*
X75446429Y75000002D01*
X77267857Y92028571D02*
X78067857Y91800000D01*
X77496429Y91571429D01*
X78067857Y91342857D01*
X77267857Y91114286D01*
X77267857Y90771428D02*
X78067857Y90542857D01*
X77496429Y90314286D01*
X78067857Y90085714D01*
X77267857Y89857143D01*
X77267857Y89514285D02*
X78067857Y89285714D01*
X77496429Y89057143D01*
X78067857Y88828571D01*
X77267857Y88600000D01*
X77953571Y88142857D02*
X78010714Y88085714D01*
X78067857Y88142857D01*
X78010714Y88200000D01*
X77953571Y88142857D01*
X78067857Y88142857D01*
X78067857Y87399999D02*
X78010714Y87514285D01*
X77953571Y87571428D01*
X77839286Y87628571D01*
X77496429Y87628571D01*
X77382143Y87571428D01*
X77325000Y87514285D01*
X77267857Y87399999D01*
X77267857Y87228571D01*
X77325000Y87114285D01*
X77382143Y87057142D01*
X77496429Y86999999D01*
X77839286Y86999999D01*
X77953571Y87057142D01*
X78010714Y87114285D01*
X78067857Y87228571D01*
X78067857Y87399999D01*
X78067857Y86485714D02*
X76867857Y86485714D01*
X78067857Y85971428D02*
X77439286Y85971428D01*
X77325000Y86028571D01*
X77267857Y86142857D01*
X77267857Y86314285D01*
X77325000Y86428571D01*
X77382143Y86485714D01*
X78067857Y84885714D02*
X76867857Y84885714D01*
X78010714Y84885714D02*
X78067857Y85000000D01*
X78067857Y85228571D01*
X78010714Y85342857D01*
X77953571Y85400000D01*
X77839286Y85457143D01*
X77496429Y85457143D01*
X77382143Y85400000D01*
X77325000Y85342857D01*
X77267857Y85228571D01*
X77267857Y85000000D01*
X77325000Y84885714D01*
X78010714Y84371429D02*
X78067857Y84257143D01*
X78067857Y84028571D01*
X78010714Y83914286D01*
X77896429Y83857143D01*
X77839286Y83857143D01*
X77725000Y83914286D01*
X77667857Y84028571D01*
X77667857Y84200000D01*
X77610714Y84314286D01*
X77496429Y84371429D01*
X77439286Y84371429D01*
X77325000Y84314286D01*
X77267857Y84200000D01*
X77267857Y84028571D01*
X77325000Y83914286D01*
X77267857Y83342857D02*
X78467857Y83342857D01*
X77325000Y83342857D02*
X77267857Y83228571D01*
X77267857Y83000000D01*
X77325000Y82885714D01*
X77382143Y82828571D01*
X77496429Y82771428D01*
X77839286Y82771428D01*
X77953571Y82828571D01*
X78010714Y82885714D01*
X78067857Y83000000D01*
X78067857Y83228571D01*
X78010714Y83342857D01*
X77953571Y82257143D02*
X78010714Y82200000D01*
X78067857Y82257143D01*
X78010714Y82314286D01*
X77953571Y82257143D01*
X78067857Y82257143D01*
X78067857Y81514285D02*
X78010714Y81628571D01*
X77953571Y81685714D01*
X77839286Y81742857D01*
X77496429Y81742857D01*
X77382143Y81685714D01*
X77325000Y81628571D01*
X77267857Y81514285D01*
X77267857Y81342857D01*
X77325000Y81228571D01*
X77382143Y81171428D01*
X77496429Y81114285D01*
X77839286Y81114285D01*
X77953571Y81171428D01*
X78010714Y81228571D01*
X78067857Y81342857D01*
X78067857Y81514285D01*
X78067857Y80600000D02*
X77267857Y80600000D01*
X77496429Y80600000D02*
X77382143Y80542857D01*
X77325000Y80485714D01*
X77267857Y80371428D01*
X77267857Y80257143D01*
X77267857Y79342857D02*
X78239286Y79342857D01*
X78353571Y79400000D01*
X78410714Y79457143D01*
X78467857Y79571428D01*
X78467857Y79742857D01*
X78410714Y79857143D01*
X78010714Y79342857D02*
X78067857Y79457143D01*
X78067857Y79685714D01*
X78010714Y79800000D01*
X77953571Y79857143D01*
X77839286Y79914286D01*
X77496429Y79914286D01*
X77382143Y79857143D01*
X77325000Y79800000D01*
X77267857Y79685714D01*
X77267857Y79457143D01*
X77325000Y79342857D01*
X73503571Y67099999D02*
X73560714Y67157142D01*
X73617857Y67328571D01*
X73617857Y67442857D01*
X73560714Y67614285D01*
X73446429Y67728571D01*
X73332143Y67785714D01*
X73103571Y67842857D01*
X72932143Y67842857D01*
X72703571Y67785714D01*
X72589286Y67728571D01*
X72475000Y67614285D01*
X72417857Y67442857D01*
X72417857Y67328571D01*
X72475000Y67157142D01*
X72532143Y67099999D01*
X73617857Y66414285D02*
X73560714Y66528571D01*
X73503571Y66585714D01*
X73389286Y66642857D01*
X73046429Y66642857D01*
X72932143Y66585714D01*
X72875000Y66528571D01*
X72817857Y66414285D01*
X72817857Y66242857D01*
X72875000Y66128571D01*
X72932143Y66071428D01*
X73046429Y66014285D01*
X73389286Y66014285D01*
X73503571Y66071428D01*
X73560714Y66128571D01*
X73617857Y66242857D01*
X73617857Y66414285D01*
X72817857Y65500000D02*
X74017857Y65500000D01*
X72875000Y65500000D02*
X72817857Y65385714D01*
X72817857Y65157143D01*
X72875000Y65042857D01*
X72932143Y64985714D01*
X73046429Y64928571D01*
X73389286Y64928571D01*
X73503571Y64985714D01*
X73560714Y65042857D01*
X73617857Y65157143D01*
X73617857Y65385714D01*
X73560714Y65500000D01*
X72817857Y64528571D02*
X73617857Y64242857D01*
X72817857Y63957143D02*
X73617857Y64242857D01*
X73903571Y64357143D01*
X73960714Y64414286D01*
X74017857Y64528571D01*
X73617857Y63500000D02*
X72817857Y63500000D01*
X73046429Y63500000D02*
X72932143Y63442857D01*
X72875000Y63385714D01*
X72817857Y63271428D01*
X72817857Y63157143D01*
X73617857Y62757143D02*
X72817857Y62757143D01*
X72417857Y62757143D02*
X72475000Y62814286D01*
X72532143Y62757143D01*
X72475000Y62700000D01*
X72417857Y62757143D01*
X72532143Y62757143D01*
X72817857Y61671428D02*
X73789286Y61671428D01*
X73903571Y61728571D01*
X73960714Y61785714D01*
X74017857Y61899999D01*
X74017857Y62071428D01*
X73960714Y62185714D01*
X73560714Y61671428D02*
X73617857Y61785714D01*
X73617857Y62014285D01*
X73560714Y62128571D01*
X73503571Y62185714D01*
X73389286Y62242857D01*
X73046429Y62242857D01*
X72932143Y62185714D01*
X72875000Y62128571D01*
X72817857Y62014285D01*
X72817857Y61785714D01*
X72875000Y61671428D01*
X73617857Y61100000D02*
X72417857Y61100000D01*
X73617857Y60585714D02*
X72989286Y60585714D01*
X72875000Y60642857D01*
X72817857Y60757143D01*
X72817857Y60928571D01*
X72875000Y61042857D01*
X72932143Y61100000D01*
X72817857Y60185714D02*
X72817857Y59728571D01*
X72417857Y60014286D02*
X73446429Y60014286D01*
X73560714Y59957143D01*
X73617857Y59842857D01*
X73617857Y59728571D01*
X72703571Y57442857D02*
X72646429Y57557143D01*
X72646429Y57785714D01*
X72703571Y57900000D01*
X72817857Y58014286D01*
X72932143Y58071429D01*
X73160714Y58071429D01*
X73275000Y58014286D01*
X73389286Y57900000D01*
X73446429Y57785714D01*
X73446429Y57557143D01*
X73389286Y57442857D01*
X72246429Y57671429D02*
X72303571Y57957143D01*
X72475000Y58242857D01*
X72760714Y58414286D01*
X73046429Y58471429D01*
X73332143Y58414286D01*
X73617857Y58242857D01*
X73789286Y57957143D01*
X73846429Y57671429D01*
X73789286Y57385714D01*
X73617857Y57100000D01*
X73332143Y56928571D01*
X73046429Y56871429D01*
X72760714Y56928571D01*
X72475000Y57100000D01*
X72303571Y57385714D01*
X72246429Y57671429D01*
X75667857Y69928571D02*
X74467857Y69928571D01*
X74467857Y69471428D01*
X74525000Y69357142D01*
X74582143Y69299999D01*
X74696429Y69242856D01*
X74867857Y69242856D01*
X74982143Y69299999D01*
X75039286Y69357142D01*
X75096429Y69471428D01*
X75096429Y69928571D01*
X75667857Y68214285D02*
X75039286Y68214285D01*
X74925000Y68271428D01*
X74867857Y68385714D01*
X74867857Y68614285D01*
X74925000Y68728571D01*
X75610714Y68214285D02*
X75667857Y68328571D01*
X75667857Y68614285D01*
X75610714Y68728571D01*
X75496429Y68785714D01*
X75382143Y68785714D01*
X75267857Y68728571D01*
X75210714Y68614285D01*
X75210714Y68328571D01*
X75153571Y68214285D01*
X74867857Y67128571D02*
X75667857Y67128571D01*
X74867857Y67642857D02*
X75496429Y67642857D01*
X75610714Y67585714D01*
X75667857Y67471428D01*
X75667857Y67300000D01*
X75610714Y67185714D01*
X75553571Y67128571D01*
X75667857Y66385714D02*
X75610714Y66500000D01*
X75496429Y66557143D01*
X74467857Y66557143D01*
X74467857Y64671429D02*
X75325000Y64671429D01*
X75496429Y64728571D01*
X75610714Y64842857D01*
X75667857Y65014286D01*
X75667857Y65128571D01*
X75667857Y63585714D02*
X75039286Y63585714D01*
X74925000Y63642857D01*
X74867857Y63757143D01*
X74867857Y63985714D01*
X74925000Y64100000D01*
X75610714Y63585714D02*
X75667857Y63700000D01*
X75667857Y63985714D01*
X75610714Y64100000D01*
X75496429Y64157143D01*
X75382143Y64157143D01*
X75267857Y64100000D01*
X75210714Y63985714D01*
X75210714Y63700000D01*
X75153571Y63585714D01*
X74867857Y63014286D02*
X75667857Y63014286D01*
X74982143Y63014286D02*
X74925000Y62957143D01*
X74867857Y62842857D01*
X74867857Y62671429D01*
X74925000Y62557143D01*
X75039286Y62500000D01*
X75667857Y62500000D01*
X75667857Y61928572D02*
X74867857Y61928572D01*
X74467857Y61928572D02*
X74525000Y61985715D01*
X74582143Y61928572D01*
X74525000Y61871429D01*
X74467857Y61928572D01*
X74582143Y61928572D01*
X75610714Y60842857D02*
X75667857Y60957143D01*
X75667857Y61185714D01*
X75610714Y61300000D01*
X75553571Y61357143D01*
X75439286Y61414286D01*
X75096429Y61414286D01*
X74982143Y61357143D01*
X74925000Y61300000D01*
X74867857Y61185714D01*
X74867857Y60957143D01*
X74925000Y60842857D01*
X75667857Y60328572D02*
X74467857Y60328572D01*
X75210714Y60214286D02*
X75667857Y59871429D01*
X74867857Y59871429D02*
X75325000Y60328572D01*
X75667857Y59357143D02*
X74867857Y59357143D01*
X74467857Y59357143D02*
X74525000Y59414286D01*
X74582143Y59357143D01*
X74525000Y59300000D01*
X74467857Y59357143D01*
X74582143Y59357143D01*
X74582143Y57928571D02*
X74525000Y57871428D01*
X74467857Y57757142D01*
X74467857Y57471428D01*
X74525000Y57357142D01*
X74582143Y57299999D01*
X74696429Y57242856D01*
X74810714Y57242856D01*
X74982143Y57299999D01*
X75667857Y57985713D01*
X75667857Y57242856D01*
X74467857Y56499999D02*
X74467857Y56385714D01*
X74525000Y56271428D01*
X74582143Y56214285D01*
X74696429Y56157142D01*
X74925000Y56099999D01*
X75210714Y56099999D01*
X75439286Y56157142D01*
X75553571Y56214285D01*
X75610714Y56271428D01*
X75667857Y56385714D01*
X75667857Y56499999D01*
X75610714Y56614285D01*
X75553571Y56671428D01*
X75439286Y56728571D01*
X75210714Y56785714D01*
X74925000Y56785714D01*
X74696429Y56728571D01*
X74582143Y56671428D01*
X74525000Y56614285D01*
X74467857Y56499999D01*
X75667857Y54957142D02*
X75667857Y55642857D01*
X75667857Y55299999D02*
X74467857Y55299999D01*
X74639286Y55414285D01*
X74753571Y55528571D01*
X74810714Y55642857D01*
X74467857Y54557142D02*
X74467857Y53757142D01*
X75667857Y54271428D01*
X68485714Y50382143D02*
X69057143Y50382143D01*
X69057143Y51582143D01*
X68085714Y50382143D02*
X68085714Y51182143D01*
X68085714Y51582143D02*
X68142857Y51525000D01*
X68085714Y51467857D01*
X68028571Y51525000D01*
X68085714Y51582143D01*
X68085714Y51467857D01*
X66999999Y50439286D02*
X67114285Y50382143D01*
X67342856Y50382143D01*
X67457142Y50439286D01*
X67514285Y50496429D01*
X67571428Y50610714D01*
X67571428Y50953571D01*
X67514285Y51067857D01*
X67457142Y51125000D01*
X67342856Y51182143D01*
X67114285Y51182143D01*
X66999999Y51125000D01*
X66028571Y50439286D02*
X66142857Y50382143D01*
X66371428Y50382143D01*
X66485714Y50439286D01*
X66542857Y50553571D01*
X66542857Y51010714D01*
X66485714Y51125000D01*
X66371428Y51182143D01*
X66142857Y51182143D01*
X66028571Y51125000D01*
X65971428Y51010714D01*
X65971428Y50896429D01*
X66542857Y50782143D01*
X65457143Y51182143D02*
X65457143Y50382143D01*
X65457143Y51067857D02*
X65400000Y51125000D01*
X65285714Y51182143D01*
X65114286Y51182143D01*
X65000000Y51125000D01*
X64942857Y51010714D01*
X64942857Y50382143D01*
X64428572Y50439286D02*
X64314286Y50382143D01*
X64085714Y50382143D01*
X63971429Y50439286D01*
X63914286Y50553571D01*
X63914286Y50610714D01*
X63971429Y50725000D01*
X64085714Y50782143D01*
X64257143Y50782143D01*
X64371429Y50839286D01*
X64428572Y50953571D01*
X64428572Y51010714D01*
X64371429Y51125000D01*
X64257143Y51182143D01*
X64085714Y51182143D01*
X63971429Y51125000D01*
X62942857Y50439286D02*
X63057143Y50382143D01*
X63285714Y50382143D01*
X63400000Y50439286D01*
X63457143Y50553571D01*
X63457143Y51010714D01*
X63400000Y51125000D01*
X63285714Y51182143D01*
X63057143Y51182143D01*
X62942857Y51125000D01*
X62885714Y51010714D01*
X62885714Y50896429D01*
X63457143Y50782143D01*
X61857143Y50382143D02*
X61857143Y51582143D01*
X61857143Y50439286D02*
X61971429Y50382143D01*
X62200000Y50382143D01*
X62314286Y50439286D01*
X62371429Y50496429D01*
X62428572Y50610714D01*
X62428572Y50953571D01*
X62371429Y51067857D01*
X62314286Y51125000D01*
X62200000Y51182143D01*
X61971429Y51182143D01*
X61857143Y51125000D01*
X59857143Y51182143D02*
X59857143Y50382143D01*
X60371429Y51182143D02*
X60371429Y50553571D01*
X60314286Y50439286D01*
X60200000Y50382143D01*
X60028572Y50382143D01*
X59914286Y50439286D01*
X59857143Y50496429D01*
X59285715Y51182143D02*
X59285715Y50382143D01*
X59285715Y51067857D02*
X59228572Y51125000D01*
X59114286Y51182143D01*
X58942858Y51182143D01*
X58828572Y51125000D01*
X58771429Y51010714D01*
X58771429Y50382143D01*
X57685715Y50382143D02*
X57685715Y51582143D01*
X57685715Y50439286D02*
X57800001Y50382143D01*
X58028572Y50382143D01*
X58142858Y50439286D01*
X58200001Y50496429D01*
X58257144Y50610714D01*
X58257144Y50953571D01*
X58200001Y51067857D01*
X58142858Y51125000D01*
X58028572Y51182143D01*
X57800001Y51182143D01*
X57685715Y51125000D01*
X56657144Y50439286D02*
X56771430Y50382143D01*
X57000001Y50382143D01*
X57114287Y50439286D01*
X57171430Y50553571D01*
X57171430Y51010714D01*
X57114287Y51125000D01*
X57000001Y51182143D01*
X56771430Y51182143D01*
X56657144Y51125000D01*
X56600001Y51010714D01*
X56600001Y50896429D01*
X57171430Y50782143D01*
X56085716Y50382143D02*
X56085716Y51182143D01*
X56085716Y50953571D02*
X56028573Y51067857D01*
X55971430Y51125000D01*
X55857144Y51182143D01*
X55742859Y51182143D01*
X54600001Y51582143D02*
X53914287Y51582143D01*
X54257144Y50382143D02*
X54257144Y51582143D01*
X53571430Y50725000D02*
X53000001Y50725000D01*
X53685715Y50382143D02*
X53285715Y51582143D01*
X52885715Y50382143D01*
X52485716Y50382143D02*
X52485716Y51582143D01*
X52028573Y51582143D01*
X51914287Y51525000D01*
X51857144Y51467857D01*
X51800001Y51353571D01*
X51800001Y51182143D01*
X51857144Y51067857D01*
X51914287Y51010714D01*
X52028573Y50953571D01*
X52485716Y50953571D01*
X50600001Y50382143D02*
X51000001Y50953571D01*
X51285716Y50382143D02*
X51285716Y51582143D01*
X50828573Y51582143D01*
X50714287Y51525000D01*
X50657144Y51467857D01*
X50600001Y51353571D01*
X50600001Y51182143D01*
X50657144Y51067857D01*
X50714287Y51010714D01*
X50828573Y50953571D01*
X51285716Y50953571D01*
X48942858Y51582143D02*
X48714287Y51582143D01*
X48600001Y51525000D01*
X48485715Y51410714D01*
X48428573Y51182143D01*
X48428573Y50782143D01*
X48485715Y50553571D01*
X48600001Y50439286D01*
X48714287Y50382143D01*
X48942858Y50382143D01*
X49057144Y50439286D01*
X49171430Y50553571D01*
X49228573Y50782143D01*
X49228573Y51182143D01*
X49171430Y51410714D01*
X49057144Y51525000D01*
X48942858Y51582143D01*
X47914287Y50382143D02*
X47914287Y51582143D01*
X47914287Y51010714D02*
X47228572Y51010714D01*
X47228572Y50382143D02*
X47228572Y51582143D01*
X46085715Y50382143D02*
X46657144Y50382143D01*
X46657144Y51582143D01*
X65114285Y49132143D02*
X64885714Y48332143D01*
X64657143Y48903571D01*
X64428571Y48332143D01*
X64200000Y49132143D01*
X63857142Y49132143D02*
X63628571Y48332143D01*
X63400000Y48903571D01*
X63171428Y48332143D01*
X62942857Y49132143D01*
X62599999Y49132143D02*
X62371428Y48332143D01*
X62142857Y48903571D01*
X61914285Y48332143D01*
X61685714Y49132143D01*
X61228571Y48446429D02*
X61171428Y48389286D01*
X61228571Y48332143D01*
X61285714Y48389286D01*
X61228571Y48446429D01*
X61228571Y48332143D01*
X60828570Y49132143D02*
X60371427Y49132143D01*
X60657142Y49532143D02*
X60657142Y48503571D01*
X60599999Y48389286D01*
X60485713Y48332143D01*
X60371427Y48332143D01*
X59457142Y48332143D02*
X59457142Y48960714D01*
X59514285Y49075000D01*
X59628571Y49132143D01*
X59857142Y49132143D01*
X59971428Y49075000D01*
X59457142Y48389286D02*
X59571428Y48332143D01*
X59857142Y48332143D01*
X59971428Y48389286D01*
X60028571Y48503571D01*
X60028571Y48617857D01*
X59971428Y48732143D01*
X59857142Y48789286D01*
X59571428Y48789286D01*
X59457142Y48846429D01*
X58885714Y49132143D02*
X58885714Y47932143D01*
X58885714Y49075000D02*
X58771428Y49132143D01*
X58542857Y49132143D01*
X58428571Y49075000D01*
X58371428Y49017857D01*
X58314285Y48903571D01*
X58314285Y48560714D01*
X58371428Y48446429D01*
X58428571Y48389286D01*
X58542857Y48332143D01*
X58771428Y48332143D01*
X58885714Y48389286D01*
X57800000Y48332143D02*
X57800000Y49132143D01*
X57800000Y48903571D02*
X57742857Y49017857D01*
X57685714Y49075000D01*
X57571428Y49132143D01*
X57457143Y49132143D01*
X57057143Y48446429D02*
X57000000Y48389286D01*
X57057143Y48332143D01*
X57114286Y48389286D01*
X57057143Y48446429D01*
X57057143Y48332143D01*
X56314285Y48332143D02*
X56428571Y48389286D01*
X56485714Y48446429D01*
X56542857Y48560714D01*
X56542857Y48903571D01*
X56485714Y49017857D01*
X56428571Y49075000D01*
X56314285Y49132143D01*
X56142857Y49132143D01*
X56028571Y49075000D01*
X55971428Y49017857D01*
X55914285Y48903571D01*
X55914285Y48560714D01*
X55971428Y48446429D01*
X56028571Y48389286D01*
X56142857Y48332143D01*
X56314285Y48332143D01*
X55400000Y48332143D02*
X55400000Y49132143D01*
X55400000Y48903571D02*
X55342857Y49017857D01*
X55285714Y49075000D01*
X55171428Y49132143D01*
X55057143Y49132143D01*
X54142857Y49132143D02*
X54142857Y48160714D01*
X54200000Y48046429D01*
X54257143Y47989286D01*
X54371428Y47932143D01*
X54542857Y47932143D01*
X54657143Y47989286D01*
X54142857Y48389286D02*
X54257143Y48332143D01*
X54485714Y48332143D01*
X54600000Y48389286D01*
X54657143Y48446429D01*
X54714286Y48560714D01*
X54714286Y48903571D01*
X54657143Y49017857D01*
X54600000Y49075000D01*
X54485714Y49132143D01*
X54257143Y49132143D01*
X54142857Y49075000D01*
X52714286Y49589286D02*
X53742857Y48046429D01*
X52085714Y49532143D02*
X51857143Y49532143D01*
X51742857Y49475000D01*
X51628571Y49360714D01*
X51571429Y49132143D01*
X51571429Y48732143D01*
X51628571Y48503571D01*
X51742857Y48389286D01*
X51857143Y48332143D01*
X52085714Y48332143D01*
X52200000Y48389286D01*
X52314286Y48503571D01*
X52371429Y48732143D01*
X52371429Y49132143D01*
X52314286Y49360714D01*
X52200000Y49475000D01*
X52085714Y49532143D01*
X51057143Y48332143D02*
X51057143Y49532143D01*
X51057143Y48960714D02*
X50371428Y48960714D01*
X50371428Y48332143D02*
X50371428Y49532143D01*
X49228571Y48332143D02*
X49800000Y48332143D01*
X49800000Y49532143D01*
D13*
X100000000Y100000000D02*
X100000000Y0D01*
X0Y0D02*
X0Y100000000D01*
D11*
X32707107Y71500000D02*
G75*
G03X32707107Y71500000I-707107J0D01*
G01*
D10*
X33400000Y71070000D02*
X32400000Y70070000D01*
X32400000Y70070000D02*
X26600000Y70070000D01*
X26600000Y70070000D02*
X26600000Y79930000D01*
X26600000Y79930000D02*
X33400000Y79930000D01*
X33400000Y79930000D02*
X33400000Y71070000D01*
D11*
X32707107Y21500000D02*
G75*
G03X32707107Y21500000I-707107J0D01*
G01*
D10*
X33400000Y21070000D02*
X32400000Y20070000D01*
X32400000Y20070000D02*
X26600000Y20070000D01*
X26600000Y20070000D02*
X26600000Y29930000D01*
X26600000Y29930000D02*
X33400000Y29930000D01*
X33400000Y29930000D02*
X33400000Y21070000D01*
X32057143Y69527143D02*
X32057143Y68555714D01*
X32000000Y68441429D01*
X31942857Y68384286D01*
X31828571Y68327143D01*
X31600000Y68327143D01*
X31485714Y68384286D01*
X31428571Y68441429D01*
X31371428Y68555714D01*
X31371428Y69527143D01*
X30914285Y69527143D02*
X30171428Y69527143D01*
X30571428Y69070000D01*
X30400000Y69070000D01*
X30285714Y69012857D01*
X30228571Y68955714D01*
X30171428Y68841429D01*
X30171428Y68555714D01*
X30228571Y68441429D01*
X30285714Y68384286D01*
X30400000Y68327143D01*
X30742857Y68327143D01*
X30857143Y68384286D01*
X30914285Y68441429D01*
X29428571Y69527143D02*
X29314286Y69527143D01*
X29200000Y69470000D01*
X29142857Y69412857D01*
X29085714Y69298571D01*
X29028571Y69070000D01*
X29028571Y68784286D01*
X29085714Y68555714D01*
X29142857Y68441429D01*
X29200000Y68384286D01*
X29314286Y68327143D01*
X29428571Y68327143D01*
X29542857Y68384286D01*
X29600000Y68441429D01*
X29657143Y68555714D01*
X29714286Y68784286D01*
X29714286Y69070000D01*
X29657143Y69298571D01*
X29600000Y69412857D01*
X29542857Y69470000D01*
X29428571Y69527143D01*
X28571429Y69412857D02*
X28514286Y69470000D01*
X28400000Y69527143D01*
X28114286Y69527143D01*
X28000000Y69470000D01*
X27942857Y69412857D01*
X27885714Y69298571D01*
X27885714Y69184286D01*
X27942857Y69012857D01*
X28628571Y68327143D01*
X27885714Y68327143D01*
X32057143Y19527143D02*
X32057143Y18555714D01*
X32000000Y18441429D01*
X31942857Y18384286D01*
X31828571Y18327143D01*
X31600000Y18327143D01*
X31485714Y18384286D01*
X31428571Y18441429D01*
X31371428Y18555714D01*
X31371428Y19527143D01*
X30914285Y19527143D02*
X30171428Y19527143D01*
X30571428Y19070000D01*
X30400000Y19070000D01*
X30285714Y19012857D01*
X30228571Y18955714D01*
X30171428Y18841429D01*
X30171428Y18555714D01*
X30228571Y18441429D01*
X30285714Y18384286D01*
X30400000Y18327143D01*
X30742857Y18327143D01*
X30857143Y18384286D01*
X30914285Y18441429D01*
X29428571Y19527143D02*
X29314286Y19527143D01*
X29200000Y19470000D01*
X29142857Y19412857D01*
X29085714Y19298571D01*
X29028571Y19070000D01*
X29028571Y18784286D01*
X29085714Y18555714D01*
X29142857Y18441429D01*
X29200000Y18384286D01*
X29314286Y18327143D01*
X29428571Y18327143D01*
X29542857Y18384286D01*
X29600000Y18441429D01*
X29657143Y18555714D01*
X29714286Y18784286D01*
X29714286Y19070000D01*
X29657143Y19298571D01*
X29600000Y19412857D01*
X29542857Y19470000D01*
X29428571Y19527143D01*
X27885714Y18327143D02*
X28571429Y18327143D01*
X28228571Y18327143D02*
X28228571Y19527143D01*
X28342857Y19355714D01*
X28457143Y19241429D01*
X28571429Y19184286D01*
M02*
